<?xml version="1.0" encoding="UTF-8" standalone="no"?>
<!-- Created with Inkscape (http://www.inkscape.org/) -->

<svg
   xmlns:dc="http://purl.org/dc/elements/1.1/"
   xmlns:cc="http://creativecommons.org/ns#"
   xmlns:rdf="http://www.w3.org/1999/02/22-rdf-syntax-ns#"
   xmlns:svg="http://www.w3.org/2000/svg"
   xmlns="http://www.w3.org/2000/svg"
   xmlns:sodipodi="http://sodipodi.sourceforge.net/DTD/sodipodi-0.dtd"
   xmlns:inkscape="http://www.inkscape.org/namespaces/inkscape"
   width="512"
   height="512"
   viewBox="0 0 135.46666 135.46667"
   version="1.1"
   id="svg1104"
   sodipodi:docname="logo.svg"
   inkscape:version="0.92.3 (2405546, 2018-03-11)">
  <defs
     id="defs1098" />
  <sodipodi:namedview
     id="base"
     pagecolor="#ffffff"
     bordercolor="#666666"
     borderopacity="1.0"
     inkscape:pageopacity="0.0"
     inkscape:pageshadow="2"
     inkscape:zoom="0.98994949"
     inkscape:cx="72.59592"
     inkscape:cy="240.30185"
     inkscape:document-units="mm"
     inkscape:current-layer="layer1"
     showgrid="false"
     units="px"
     inkscape:window-width="1467"
     inkscape:window-height="1160"
     inkscape:window-x="0"
     inkscape:window-y="18"
     inkscape:window-maximized="0"
     inkscape:snap-others="false" />
  <metadata
     id="metadata1101">
    <rdf:RDF>
      <cc:Work
         rdf:about="">
        <dc:format>image/svg+xml</dc:format>
        <dc:type
           rdf:resource="http://purl.org/dc/dcmitype/StillImage" />
        <dc:title></dc:title>
      </cc:Work>
    </rdf:RDF>
  </metadata>
  <g
     inkscape:label="Ebene 1"
     inkscape:groupmode="layer"
     id="layer1"
     transform="translate(0,-161.53332)">
    <path
       style="fill:#000000;fill-opacity:1;fill-rule:evenodd;stroke:#000000;stroke-width:0;stroke-linecap:butt;stroke-linejoin:miter;stroke-miterlimit:4;stroke-dasharray:none;stroke-dashoffset:0;stroke-opacity:1;paint-order:normal"
       id="path1665"
       d="m 67.314373,205.55721 c -0.166865,-0.37187 -0.375925,-0.7203 -0.589433,-1.06624 -0.197546,-0.31033 -0.400275,-0.61319 -0.57376,-0.93787 -0.120182,-0.30117 -0.336992,-0.5442 -0.493096,-0.82436 -0.16596,-0.25293 -0.323199,-0.51036 -0.487058,-0.76452 -0.160078,-0.28111 -0.359307,-0.53248 -0.553363,-0.78952 -0.144444,-0.23276 -0.290727,-0.47095 -0.483994,-0.66677 -0.179118,-0.23691 -0.345491,-0.48572 -0.491546,-0.7451 -0.14814,-0.30423 -0.342133,-0.5764 -0.538451,-0.84976 -0.159747,-0.24837 -0.303792,-0.50427 -0.44696,-0.76263 -0.164288,-0.22375 -0.315344,-0.46221 -0.434608,-0.71338 -0.137678,-0.24619 -0.275087,-0.4951 -0.38708,-0.75439 -0.13758,-0.22966 -0.221202,-0.48627 -0.38287,-0.70118 -0.16156,-0.24894 -0.282565,-0.52758 -0.388771,-0.80483 -0.121047,-0.23422 -0.252434,-0.46537 -0.399227,-0.68466 -0.148728,-0.24114 -0.258615,-0.50391 -0.399151,-0.74924 -0.158115,-0.29648 -0.283323,-0.60892 -0.372168,-0.93279 -0.116147,-0.28999 -0.189672,-0.59262 -0.299812,-0.88443 -0.08873,-0.27872 -0.165323,-0.56374 -0.289963,-0.82935 -0.145716,-0.28137 -0.200099,-0.59662 -0.334854,-0.88227 -0.131296,-0.2926 -0.252687,-0.59121 -0.362209,-0.89298 -0.120261,-0.27197 -0.271947,-0.52489 -0.428839,-0.77629 -0.190804,-0.30325 -0.367887,-0.61376 -0.556697,-0.91814 -0.159774,-0.27778 -0.305395,-0.56888 -0.488643,-0.83226 -0.174085,-0.24232 -0.345956,-0.48448 -0.504505,-0.73817 -0.187007,-0.23073 -0.352271,-0.47841 -0.51979,-0.72343 -0.198241,-0.21921 -0.34731,-0.47733 -0.506838,-0.72533 -0.177226,-0.28964 -0.397491,-0.54545 -0.60684,-0.81087 -0.184828,-0.20668 -0.392399,-0.39124 -0.576194,-0.59851 -0.03299,-0.0394 -0.06598,-0.0789 -0.09897,-0.11828 0,0 2.876122,-1.735 2.876122,-1.735 v 0 c 0.03277,0.0362 0.06554,0.0724 0.09831,0.10864 0.196106,0.20623 0.39938,0.40552 0.583662,0.62279 0.215138,0.27281 0.424842,0.54852 0.621475,0.83509 0.164341,0.24288 0.310676,0.49825 0.5036,0.72023 0.17136,0.2486 0.345342,0.49489 0.530609,0.73346 0.156755,0.24975 0.324656,0.48966 0.493312,0.73102 0.179825,0.27219 0.341705,0.55817 0.493411,0.84676 0.185188,0.30555 0.361162,0.6166 0.559475,0.91389 0.169127,0.27222 0.33541,0.54572 0.466119,0.83923 0.100031,0.29319 0.220485,0.58029 0.34213,0.86463 0.135594,0.28578 0.207762,0.59291 0.340924,0.87915 0.12959,0.27311 0.218495,0.56422 0.301365,0.85422 0.114078,0.30377 0.189604,0.61717 0.309661,0.91925 0.07332,0.29918 0.194982,0.57962 0.33941,0.85116 0.134784,0.24058 0.245753,0.49439 0.388972,0.7305 0.15566,0.24332 0.306353,0.49092 0.433406,0.75057 0.09113,0.25145 0.203261,0.50214 0.347697,0.72658 0.166304,0.24167 0.275198,0.51077 0.417488,0.76625 0.106606,0.25703 0.248397,0.49934 0.381506,0.74319 0.113437,0.24607 0.270941,0.47073 0.423883,0.69348 0.136679,0.2472 0.272199,0.49318 0.423945,0.73148 0.201276,0.28352 0.3874,0.57429 0.553858,0.87983 0.137075,0.23525 0.293822,0.46172 0.45993,0.67669 0.187521,0.21571 0.351631,0.45044 0.496708,0.69667 0.19931,0.2635 0.389144,0.53188 0.564335,0.81213 0.167825,0.26049 0.333205,0.52181 0.500411,0.78278 0.154403,0.28132 0.369287,0.5283 0.487977,0.83038 0.174895,0.31692 0.363498,0.6237 0.559937,0.92793 0.216311,0.36536 0.422625,0.73575 0.635821,1.10293 0,0 -2.939762,1.64164 -2.939762,1.64164 z"
       inkscape:connector-curvature="0" />
    <path
       style="fill:#000000;fill-opacity:1;fill-rule:evenodd;stroke:#000000;stroke-width:0;stroke-linecap:butt;stroke-linejoin:miter;stroke-miterlimit:4;stroke-dasharray:none;stroke-dashoffset:0;stroke-opacity:1;paint-order:normal"
       id="path1667"
       d="m 57.300987,181.09004 c 0.355055,0.19148 0.719129,0.33462 1.114856,0.41441 0.321937,0.15767 0.682866,0.17079 1.019088,0.27274 0.350081,0.059 0.679458,0.17784 1.020873,0.26894 0.316659,0.0346 0.604573,0.16556 0.917051,0.22261 0.355574,0.0259 0.693807,0.13542 1.046152,0.18806 0.351962,0.005 0.678887,0.13213 1.022845,0.19001 0.34549,0.0468 0.694859,0.0492 1.042871,0.0528 0.376029,0.002 0.752062,7.2e-4 1.128094,1e-4 0.378317,-6e-4 0.756634,-7.6e-4 1.134951,-8.7e-4 0.378029,-7e-5 0.756057,-6e-5 1.134086,-6e-5 0.377973,1e-5 0.755946,1e-5 1.133922,1e-5 0.377973,1e-5 0.755949,1e-5 1.133925,1e-5 0.382733,0.04 0.743839,-0.0442 1.117052,-0.10778 0.379614,-0.0598 0.764173,-0.0716 1.147675,-0.0792 0.348208,0.0351 0.669304,-0.0919 1.008907,-0.14257 0.356304,-0.0428 0.71573,-0.0456 1.074092,-0.049 0.364122,-0.0271 0.743889,0.0536 1.098426,-0.0428 0.323037,-0.0969 0.659955,-0.11931 0.994788,-0.13536 0.243599,-0.0324 0.497245,0.0196 0.740058,-0.0116 0.105095,-0.0135 0.204367,-0.0561 0.306895,-0.0828 0.322549,-0.1002 0.672632,-0.0375 0.989338,-0.14451 0.304173,-0.12715 0.647274,-0.0722 0.950228,-0.18535 0.314978,-0.11097 0.650068,-0.12901 0.980609,-0.14445 0.326525,-0.0315 0.639355,-0.13334 0.970124,-0.16783 0.175165,-0.0337 0.360394,0.002 0.53536,-0.0258 0.150559,-0.0235 0.305269,-0.0892 0.456049,-0.12085 0.286166,-0.0506 0.577147,-0.0597 0.866926,-0.0681 0,0 -2.70084,1.98249 -2.70084,1.98249 v 0 c -0.281958,0.0195 -0.563803,0.0469 -0.838684,0.11617 -0.331991,0.0747 -0.66789,0.0792 -1.004388,0.12544 -0.326339,0.0587 -0.646353,0.15159 -0.981022,0.14889 -0.32435,0.0343 -0.639929,0.10146 -0.954127,0.18867 -0.323522,0.0356 -0.63949,0.10104 -0.955855,0.17643 -0.332957,0.0264 -0.66363,0.0672 -0.989076,0.14493 -0.353557,0.0514 -0.713121,0.0192 -1.068472,0.058 -0.331655,0.033 -0.656106,0.10011 -0.984652,0.15306 -0.372369,0.005 -0.744839,-5e-5 -1.117177,0.009 -0.350924,0.0104 -0.703188,0.0253 -1.048477,0.0942 -0.342173,0.069 -0.680382,0.11515 -1.031275,0.10005 -0.375396,0.0163 -0.750406,0.045 -1.120182,0.11508 -0.382106,0.0634 -0.763564,0.0764 -1.150805,0.0634 -0.377976,0 -0.755952,0 -1.133928,0 -0.377973,-1e-5 -0.755946,-1e-5 -1.133919,-1e-5 -0.377997,0 -0.755997,0 -1.133994,1.4e-4 -0.378237,1.9e-4 -0.756472,5.1e-4 -1.134708,0.001 -0.377645,4.8e-4 -0.755335,0.002 -1.132935,-0.005 -0.362124,-0.01 -0.726059,-0.0231 -1.081878,-0.0973 -0.335926,-0.0751 -0.668282,-0.15651 -1.012452,-0.18706 -0.3541,-0.0678 -0.706049,-0.14257 -1.06249,-0.19685 -0.309811,-0.0802 -0.614596,-0.17619 -0.92837,-0.24093 -0.332902,-0.10427 -0.670483,-0.18176 -1.010126,-0.26142 -0.344559,-0.0672 -0.678908,-0.16097 -1.010815,-0.2754 -0.40128,-0.11333 -0.774387,-0.28916 -1.161931,-0.43999 0,0 2.797337,-1.87405 2.797337,-1.87405 z"
       inkscape:connector-curvature="0" />
    <path
       style="fill:#000000;fill-opacity:1;fill-rule:evenodd;stroke:#000000;stroke-width:0;stroke-linecap:butt;stroke-linejoin:miter;stroke-miterlimit:4;stroke-dasharray:none;stroke-dashoffset:0;stroke-opacity:1;paint-order:normal"
       id="path1669"
       d="m 84.486392,181.76617 c -0.153572,0.39867 -0.340889,0.78204 -0.535051,1.16217 -0.170855,0.2797 -0.299794,0.58278 -0.494186,0.8476 -0.141713,0.23899 -0.299598,0.46524 -0.459928,0.69194 -0.188343,0.18959 -0.347607,0.39714 -0.509368,0.60821 -0.135728,0.24282 -0.283106,0.47612 -0.438605,0.70695 -0.184544,0.19454 -0.344133,0.40354 -0.506145,0.61585 -0.139023,0.23525 -0.348356,0.41527 -0.491059,0.64691 -0.144367,0.22782 -0.318807,0.4301 -0.492482,0.6352 -0.134792,0.23918 -0.32598,0.43865 -0.46028,0.67724 -0.157247,0.2221 -0.300246,0.45193 -0.453191,0.67657 -0.156123,0.22733 -0.309745,0.45445 -0.452668,0.69115 -0.177805,0.22135 -0.317656,0.46943 -0.471138,0.70821 -0.16119,0.25715 -0.317386,0.51633 -0.467368,0.78036 -0.12773,0.25294 -0.256955,0.50456 -0.388236,0.75584 -0.118693,0.25527 -0.247134,0.50573 -0.377217,0.75558 -0.130432,0.30652 -0.209492,0.63169 -0.331835,0.94098 -0.105876,0.29237 -0.246018,0.56722 -0.34294,0.86292 -0.117443,0.32043 -0.191299,0.65278 -0.298368,0.97662 -0.113609,0.27728 -0.20438,0.56483 -0.318336,0.84201 -0.113371,0.25482 -0.261003,0.49369 -0.400605,0.7353 -0.126558,0.2496 -0.255995,0.49725 -0.386522,0.74504 -0.109636,0.26977 -0.198149,0.54931 -0.325215,0.81174 -0.120404,0.25702 -0.23055,0.52042 -0.367806,0.76908 -0.14224,0.28364 -0.329075,0.54095 -0.474853,0.82214 -0.145489,0.24633 -0.288343,0.49703 -0.403801,0.75917 -0.135441,0.23991 -0.277503,0.47647 -0.429938,0.70594 -0.139409,0.26578 -0.29704,0.5218 -0.442619,0.78466 -0.181594,0.27721 -0.36083,0.55532 -0.544655,0.83093 -0.190148,0.21259 -0.313568,0.47159 -0.491807,0.69286 -0.174723,0.20938 -0.336106,0.42476 -0.48272,0.65558 -0.08595,0.10473 -0.162729,0.2123 -0.25568,0.31101 0,0 -3.094841,1.31731 -3.094841,1.31731 v 0 c 0.08223,-0.11389 0.187446,-0.18629 0.256219,-0.3097 0.201415,-0.18881 0.274175,-0.46599 0.490617,-0.6391 0.159023,-0.24065 0.359434,-0.4501 0.489046,-0.71247 0.233891,-0.2299 0.379026,-0.52971 0.558384,-0.80206 0.184597,-0.22523 0.314881,-0.50932 0.443746,-0.76688 0.132265,-0.24247 0.289796,-0.46477 0.434541,-0.69704 0.168487,-0.23445 0.2486,-0.52799 0.400079,-0.77487 0.186645,-0.24655 0.29994,-0.54611 0.482569,-0.79777 0.126103,-0.25249 0.273393,-0.49388 0.373737,-0.75725 0.122221,-0.26137 0.259791,-0.51836 0.331626,-0.79926 0.04989,-0.14563 0.122454,-0.24496 0.189672,-0.37777 0.06368,-0.12582 0.07968,-0.2751 0.192561,-0.3755 0.05317,-0.14637 0.125666,-0.23775 0.199519,-0.36838 0.06791,-0.1201 0.08925,-0.2642 0.207608,-0.35462 0.03525,-0.0864 0.08742,-0.16561 0.119182,-0.25338 0.06827,-0.18865 0.08125,-0.39917 0.217196,-0.56132 0.09129,-0.33412 0.219782,-0.65301 0.292211,-0.99317 0.05963,-0.15137 0.08634,-0.30856 0.147154,-0.45909 0.24974,-0.61816 -0.118793,0.32466 0.139364,-0.25412 0.02289,-0.0513 0.03325,-0.10733 0.04987,-0.16099 0.126883,-0.30851 0.243797,-0.61882 0.324633,-0.94376 0.0496,-0.14513 0.122335,-0.24508 0.18865,-0.37776 0.06294,-0.12593 0.07831,-0.27574 0.188535,-0.37799 0.04986,-0.14598 0.122615,-0.24635 0.189671,-0.37976 0.0648,-0.12892 0.08263,-0.28136 0.195731,-0.38575 0.05735,-0.15487 0.134729,-0.25839 0.213876,-0.39827 0.07861,-0.13895 0.115057,-0.30059 0.245491,-0.40839 0.129371,-0.26431 0.306766,-0.49464 0.443071,-0.75306 0.200422,-0.19129 0.268317,-0.46542 0.469525,-0.65452 0.132908,-0.24341 0.289763,-0.46614 0.445825,-0.69226 0.172564,-0.20725 0.269079,-0.47163 0.466601,-0.66374 0.118372,-0.25773 0.341818,-0.41604 0.481658,-0.65852 0.09534,-0.10936 0.131236,-0.24168 0.229526,-0.34762 0.02891,-0.0312 0.0702,-0.0493 0.09842,-0.081 0.302284,-0.34033 -0.141128,0.0872 0.170006,-0.20329 0.137411,-0.2414 0.299201,-0.4575 0.486711,-0.6592 0.203706,-0.17154 0.355849,-0.42047 0.457896,-0.6638 0.137181,-0.24124 0.298434,-0.45713 0.487418,-0.6572 0.206598,-0.16923 0.362897,-0.41414 0.480399,-0.65112 0.180028,-0.27411 0.392115,-0.52356 0.519134,-0.83292 0.230682,-0.33343 0.404026,-0.724 0.535717,-1.10497 0,0 3.056062,-1.41339 3.056062,-1.41339 z"
       inkscape:connector-curvature="0" />
    <path
       style="fill:#000000;fill-opacity:1;fill-rule:evenodd;stroke:#000000;stroke-width:0;stroke-linecap:butt;stroke-linejoin:miter;stroke-miterlimit:4;stroke-dasharray:none;stroke-dashoffset:0;stroke-opacity:1;paint-order:normal"
       id="path1671"
       d="m 70.148561,203.60128 c 0.05904,0.4148 0.08986,0.83155 0.186478,1.23973 0.09803,0.3621 0.138136,0.73427 0.1607,1.10751 0.05862,0.31976 0.128365,0.63563 0.164957,0.95923 0.03452,0.37046 0.0366,0.74288 0.03905,1.11462 0.0013,0.37845 2.65e-4,0.7569 -1.74e-4,1.13534 0.02775,0.35533 -0.03087,0.69856 -0.09815,1.04496 -0.06466,0.34276 -0.07758,0.69185 -0.08698,1.03961 0.0054,0.36088 -0.0026,0.71552 -0.0727,1.06994 -0.07458,0.33329 -0.09717,0.67401 -0.111458,1.01422 -0.01611,0.36599 0.01019,0.7328 -0.04626,1.09571 -0.0761,0.32622 -0.114091,0.65777 -0.135139,0.99148 -0.01804,0.37095 -0.01765,0.74246 -0.0182,1.11375 1.6e-5,0.37828 5.29e-4,0.75656 0.0011,1.13484 2.65e-4,0.37809 2.65e-4,0.75619 2.65e-4,1.13429 1.6e-5,0.37798 8e-6,0.75596 5e-6,1.13394 -2e-6,0.37797 -2e-6,0.75595 -5e-6,1.13392 -0.0051,0.36999 0.02135,0.74086 -0.03565,1.10763 -0.07645,0.32583 -0.114925,0.657 -0.1362,0.9904 -0.01826,0.37085 -0.01786,0.74229 -0.01844,1.11349 1e-5,0.37828 5.29e-4,0.75656 0.0011,1.13483 2.65e-4,0.3781 2.65e-4,0.7562 2.65e-4,1.1343 1.8e-5,0.37798 1e-5,0.75596 7e-6,1.13394 0.02384,0.34539 -0.06867,0.67894 -0.12383,1.01634 -0.05112,0.35242 -0.0579,0.70903 -0.06367,1.06445 0.02304,0.38967 -0.04524,0.77067 -0.105399,1.15337 -0.05745,0.3691 -0.07207,0.7426 -0.08116,1.11542 -0.03173,0.38418 -0.112067,0.76153 -0.152784,1.145 -0.03424,0.37257 -0.03769,0.74698 -0.04059,1.12083 -0.0066,0.36966 0.02064,0.74009 -0.03584,1.1066 -0.07601,0.32595 -0.114366,0.65715 -0.13557,0.99057 -0.0182,0.37086 -0.01783,0.7423 -0.01839,1.11352 0.02373,0.34558 -0.06808,0.67951 -0.122893,1.01722 -0.05081,0.35257 -0.05757,0.7093 -0.06332,1.06485 -0.004,0.37701 -0.0028,0.75404 -0.0024,1.13105 5.29e-4,0.37827 7.94e-4,0.75653 7.94e-4,1.13479 9.2e-5,0.37801 9e-5,0.75602 9e-5,1.13403 -3e-6,0.37797 -6e-6,0.75595 -8e-6,1.13392 0,0.37798 0,0.75595 0,1.13393 0,0.37797 0,0.75595 0,1.13393 0,0.37797 0,0.75595 0,1.13392 0,0.37798 0,0.75596 0,1.13393 -0.03187,0.3385 0.04376,0.66282 0.103634,0.99253 0.06121,0.3586 0.07322,0.7227 0.08178,1.0856 0.04749,0.32187 0.117454,0.63868 0.153591,0.96261 0.03444,0.37067 0.03692,0.74326 0.03957,1.11521 0.01302,0.36331 -0.0217,0.72927 0.01492,1.09128 0.07126,0.33004 0.120796,0.66246 0.148175,0.99886 0.02445,0.37373 0.02511,0.74844 0.0264,1.1228 5.29e-4,0.37844 -2.65e-4,0.75688 -5.29e-4,1.13531 -2.65e-4,0.37807 -5.29e-4,0.75614 -5.29e-4,1.1342 -2.9e-5,0.37798 -2.1e-5,0.75595 -1.9e-5,1.13393 3e-6,0.37798 5e-6,0.75595 5e-6,1.13392 0,0.37798 0,0.75596 0,1.13393 0,0.37798 0,0.75595 0,1.13393 0,0.37798 0,0.75595 0,1.13393 0,0.37797 0,0.75595 0,1.13393 0,0.37797 0,0.75595 0,1.13393 0,0.37797 0,0.75595 0,1.13392 0,0.37798 0,0.75596 0,1.13393 0.0019,0.36995 -0.0036,0.73996 0.0029,1.10986 0.0019,0.15845 0.0011,0.31691 7.94e-4,0.47537 0,0 -2.990175,1.52357 -2.990175,1.52357 v 0 c -5.29e-4,-0.1587 -0.0011,-0.3174 7.94e-4,-0.4761 0.0063,-0.37088 0.0013,-0.74186 0.0029,-1.11278 0,-0.37798 0,-0.75596 0,-1.13393 0,-0.37798 0,-0.75596 0,-1.13393 0,-0.37798 0,-0.75595 0,-1.13393 0,-0.37798 0,-0.75595 0,-1.13393 0,-0.37797 0,-0.75595 0,-1.13393 0,-0.37797 0,-0.75595 0,-1.13393 0,-0.37797 0,-0.75595 0,-1.13392 0,-0.37798 0,-0.75595 -6e-6,-1.13393 -2e-6,-0.37798 -1e-5,-0.75597 8e-6,-1.13395 2.9e-5,-0.37816 6.9e-5,-0.75631 2.65e-4,-1.13447 2.64e-4,-0.37807 0.0011,-0.75614 0.0011,-1.13421 -5.29e-4,-0.36674 -1.22e-4,-0.73371 -0.01857,-1.10009 -0.02159,-0.33023 -0.06162,-0.65789 -0.140959,-0.97987 -0.05986,-0.37375 -0.01691,-0.75453 -0.02965,-1.13198 -0.0016,-0.36158 -0.0021,-0.72361 -0.02868,-1.08441 -0.03103,-0.33397 -0.09625,-0.66036 -0.16293,-0.98872 -0.0058,-0.34627 -0.01228,-0.6938 -0.06351,-1.03697 -0.05912,-0.34845 -0.158843,-0.69007 -0.124039,-1.04765 0,-0.37798 0,-0.75596 0,-1.13393 0,-0.37798 0,-0.75596 0,-1.13393 0,-0.37798 0,-0.75595 0,-1.13393 0,-0.37797 0,-0.75595 0,-1.13393 2e-6,-0.37797 2e-6,-0.75594 8e-6,-1.13392 2e-6,-0.37798 1e-5,-0.75597 -4e-5,-1.13395 -6.9e-5,-0.37818 -1.83e-4,-0.75636 -5.29e-4,-1.13454 -5.29e-4,-0.37818 -0.0016,-0.75637 -1.4e-4,-1.13455 0.0026,-0.36693 0.0048,-0.73455 0.03952,-1.10016 0.03826,-0.32994 0.140319,-0.6488 0.148902,-0.97886 -2.33e-4,-0.37574 -0.0013,-0.75157 0.0087,-1.12721 0.01278,-0.3457 0.03025,-0.69324 0.109226,-1.03139 0.085,-0.34877 0.08146,-0.69449 0.07115,-1.05363 0.0013,-0.38244 0.0024,-0.76523 0.02768,-1.14701 0.03038,-0.37782 0.08295,-0.75236 0.163605,-1.12299 0.0057,-0.38521 0.01413,-0.77122 0.06266,-1.15391 0.05168,-0.37086 0.151826,-0.73505 0.124534,-1.11223 0.0026,-0.36688 0.0048,-0.73446 0.03972,-1.10001 0.03846,-0.3296 0.140946,-0.6479 0.15009,-0.9776 3e-6,-0.37797 8e-6,-0.75595 6e-6,-1.13392 -1.1e-5,-0.37804 -2.2e-5,-0.75608 -2.12e-4,-1.13412 -2.33e-4,-0.37838 -7.94e-4,-0.75676 -0.0011,-1.13515 -2.39e-4,-0.37575 -0.0013,-0.75158 0.0087,-1.12723 0.01283,-0.34578 0.03036,-0.69341 0.109704,-1.03156 0.08536,-0.34835 0.08277,-0.69376 0.07197,-1.05261 0,-0.37797 2e-6,-0.75595 5e-6,-1.13392 3e-6,-0.37797 8e-6,-0.75595 3e-6,-1.13392 -1.1e-5,-0.37804 -1.9e-5,-0.75608 -2.09e-4,-1.13412 -2.31e-4,-0.37838 -5.3e-4,-0.75676 -0.0011,-1.13514 -2.4e-4,-0.37578 -0.0013,-0.75165 0.0086,-1.12733 0.0127,-0.34607 0.03002,-0.69397 0.108685,-1.03256 0.08441,-0.34752 0.08163,-0.69199 0.07607,-1.04982 0.0081,-0.3547 0.0182,-0.71102 0.08104,-1.06113 0.06922,-0.3408 0.142851,-0.66702 0.105494,-1.01969 0.0049,-0.3615 0.01024,-0.72414 0.05836,-1.08303 0.05291,-0.33387 0.167831,-0.65369 0.130643,-0.99636 5.3e-4,-0.37777 0.0013,-0.75553 7.94e-4,-1.1333 -0.0013,-0.3612 -0.0016,-0.72288 -0.02808,-1.08332 -0.03085,-0.33037 -0.09528,-0.65294 -0.169955,-0.97601 -0.01527,-0.35502 -0.04203,-0.71036 -0.130242,-1.05603 -0.09535,-0.41034 -0.123237,-0.82729 -0.211383,-1.23891 0,0 2.970953,-1.58841 2.970953,-1.58841 z"
       inkscape:connector-curvature="0" />
    <path
       style="fill:#000000;fill-opacity:1;fill-rule:evenodd;stroke:#000000;stroke-width:0;stroke-linecap:butt;stroke-linejoin:miter;stroke-miterlimit:4;stroke-dasharray:none;stroke-dashoffset:0;stroke-opacity:1;paint-order:normal"
       id="path1673"
       d="m 80.594483,183.4803 c 0.223284,-0.25035 0.505454,-0.44355 0.715488,-0.70449 0.160214,-0.25086 0.174567,-0.54892 0.205037,-0.83627 0.05104,-0.2237 0.09706,-0.50361 0.317426,-0.62096 0.07925,-0.0557 0.151926,-0.14981 0.234031,-0.19891 1.628609,-0.97393 6.080239,-3.54363 0.200584,-0.13988 0,0 3.132338,-1.23493 3.132338,-1.23493 v 0 c -0.991621,0.58242 -1.980451,1.16961 -2.974866,1.74724 -0.926177,0.53799 1.846424,-1.08614 2.770155,-1.62833 0.0299,-0.0175 -0.06358,0.0305 -0.08865,0.0544 -0.16034,0.15327 0.03619,0.0437 -0.145463,0.12951 -0.139988,0.18098 -0.366858,0.0985 -0.418184,0.42777 -0.104453,0.29614 -0.03117,0.64149 -0.165603,0.9365 -0.153575,0.35758 -0.407194,0.51307 -0.673145,0.78047 0,0 -3.10915,1.28785 -3.10915,1.28785 z"
       inkscape:connector-curvature="0" />
    <path
       style="fill:#000000;fill-opacity:1;fill-rule:evenodd;stroke:#000000;stroke-width:0;stroke-linecap:butt;stroke-linejoin:miter;stroke-miterlimit:4;stroke-dasharray:none;stroke-dashoffset:0;stroke-opacity:1;paint-order:normal"
       id="path1696"
       d="m 39.265115,229.0785 c 0.475485,0.0154 0.951398,0.01 1.427058,0.008 0.41062,-0.002 0.821243,-0.003 1.231867,-0.003 0.394796,0.0176 0.733089,0.002 1.118929,-0.076 0.429707,-0.0649 0.863594,-0.0906 1.297472,-0.10545 0.411627,0.0273 0.806346,-0.0549 1.210887,-0.11106 0.421312,-0.0573 0.846308,-0.074 1.270909,-0.083 0.383617,-0.006 0.767289,-0.004 1.150935,-0.004 0.368911,-0.0913 0.745106,-0.1387 1.123447,-0.16633 0.367099,-0.048 0.751017,0.033 1.108691,-0.0658 0.322924,-0.0973 0.659953,-0.11912 0.99476,-0.1349 0.360484,-0.10763 0.733761,-0.15159 1.107559,-0.17881 0.380854,-0.0219 0.762505,-0.0214 1.143844,-0.0219 0.378322,2.3e-4 0.756645,0.001 1.134964,0.001 0.186706,-0.0181 0.380791,0.0233 0.56692,2.6e-4 0.152551,-0.0188 0.313005,-0.0835 0.464704,-0.11475 0.346898,-0.0598 0.699781,-0.0664 1.050838,-0.0728 0.376332,-0.004 0.752705,-0.003 1.129056,-0.002 0.378322,5.3e-4 0.756645,7.9e-4 1.134967,0.001 0.378024,1.1e-4 0.756047,1e-4 1.134073,1e-4 0.377973,0 0.755947,0 1.13392,-1e-5 0.377976,0 0.755951,0 1.133927,0 0.377976,0 0.755952,0 1.133928,0 0.377975,0 0.755954,0 1.13393,0 0.377975,0 0.755951,0 1.133927,0 0.377976,0 0.755952,0 1.13393,0 0.394192,0.018 0.732055,0.002 1.117354,-0.0756 0.377545,-0.0745 0.76209,-0.095 1.14576,-0.10759 0.37947,-0.009 0.759081,-0.008 1.138626,-0.007 0.378016,5.3e-4 0.756028,0.001 1.134044,0.001 0.375822,-0.0142 0.736722,-0.008 1.102296,0.0783 0.325967,0.0774 0.661215,0.0931 0.994667,0.10469 0.371412,0.009 0.742982,0.008 1.114478,0.008 0.378285,-5.3e-4 0.756568,-0.001 1.134853,-0.001 0.378095,-1.9e-4 0.75619,-2e-4 1.134288,-2e-4 0.377978,-1e-5 0.755957,0 1.133935,0 0.377976,0 0.755949,0 1.133925,0 0.377976,0 0.755951,0 1.133927,0 0.377976,0 0.755952,0 1.13393,0 0.377976,0 0.755952,0 1.133928,0 0.377976,0 0.755951,0 1.133927,0 0.377979,0 0.755954,0 1.13393,0 0.377976,0 0.755952,0 1.133928,0 0.377975,0 0.755954,0 1.13393,0 0.377976,0 0.755951,0 1.133927,0 0.377976,0 0.755952,0 1.13393,0 0.377976,0 0.755952,0 1.133928,0 0.39261,-0.0381 0.766302,0.0433 1.149818,0.1085 0.370755,0.0594 0.746464,0.071 1.121135,0.0785 0.376899,0.005 0.753848,0.004 1.130771,0.003 0.375555,0.0159 0.757928,-0.0412 1.126945,0.0382 0.320527,0.0896 0.651031,0.11955 0.981908,0.13734 0.367475,0.0147 0.735346,0.0138 1.103051,0.0139 0.378121,-2.6e-4 0.75624,-0.001 1.134361,-0.001 0.378145,-2.6e-4 0.756288,-2.6e-4 1.134433,-2.6e-4 0.326329,0.0843 0.65556,0.14055 0.99128,0.16741 0.36204,0.0224 0.72497,0.0222 1.08755,0.0231 0.37776,1.4e-4 0.75552,-5.3e-4 1.13328,-0.001 0.3782,-2.6e-4 0.75641,-5.3e-4 1.13461,-5.3e-4 0.37799,-2e-5 0.75599,-1e-5 1.13399,-1e-5 0.37797,1e-5 0.75594,1e-5 1.13392,1e-5 0.37797,0 0.75595,0 1.13393,0 0.37797,0 0.75595,0 1.13393,0 0.38242,0.0124 0.76857,-0.0342 1.14538,0.0389 0.37137,0.0836 0.74982,0.11881 1.12914,0.13817 0.37564,0.0145 0.75165,0.0135 1.1275,0.0135 0.3895,-0.0294 0.7647,0.0806 1.14781,0.13291 0.37216,0.0449 0.74738,0.0504 1.12174,0.0547 0.37729,0.002 0.75459,0.001 1.13189,7.9e-4 0.378,-5.3e-4 0.756,-7.9e-4 1.134,-7.9e-4 0.37798,-8e-5 0.75597,-7e-5 1.13396,-7e-5 0.37798,10e-6 0.75596,10e-6 1.13393,10e-6 0.37798,0 0.75595,0 1.13393,0 0.37798,0 0.75595,0 1.13393,0 0.37798,0 0.75595,0 1.13393,0 0.34113,5.3e-4 0.68222,-0.003 1.02335,-0.002 0.31597,0.001 0.6319,-0.001 0.94788,-2.6e-4 0.30496,-0.0906 0.61584,-0.14597 0.93258,-0.16987 0.35501,-0.0193 0.71072,-0.018 1.06613,-0.0183 0,0 -2.70811,1.97007 -2.70811,1.97007 v 0 c -0.35078,0.004 -0.70272,0.007 -1.05123,0.0517 -0.31807,0.0485 -0.63185,0.13931 -0.95526,0.13961 -0.31569,0.001 -0.63133,-0.002 -0.94702,-2.7e-4 -0.33896,5.3e-4 -0.67787,-0.003 -1.01683,-0.002 -0.37797,0 -0.75595,0 -1.13392,0 -0.37798,0 -0.75596,0 -1.13393,0 -0.37798,0 -0.75596,0 -1.13393,0 -0.37798,-1e-5 -0.75595,-1e-5 -1.13393,-1e-5 -0.37796,1e-5 -0.75593,1e-5 -1.13389,1.6e-4 -0.37796,1.9e-4 -0.75591,5.3e-4 -1.13386,10e-4 -0.37866,2.7e-4 -0.75737,0.001 -1.13597,-0.006 -0.38324,-0.0107 -0.76702,-0.0286 -1.14612,-0.0898 -0.37203,-0.0597 -0.7412,-0.11967 -1.12005,-0.0931 -0.38025,-0.002 -0.7609,-0.004 -1.14035,-0.0315 -0.38223,-0.0329 -0.75979,-0.0936 -1.13872,-0.15208 -0.37397,-0.0133 -0.74832,-0.003 -1.12247,-0.006 -0.37797,0 -0.75595,0 -1.13393,0 -0.37798,0 -0.75596,0 -1.13394,0 -0.37797,-1e-5 -0.75595,-1e-5 -1.13392,-1e-5 -0.37799,0 -0.75597,-1e-5 -1.13395,5e-5 -0.37813,8e-5 -0.75626,2.2e-4 -1.134384,8e-4 -0.378325,5.2e-4 -0.756655,0.002 -1.134977,-5.3e-4 -0.370391,-0.004 -0.741572,-0.007 -1.11024,-0.047 -0.323783,-0.041 -0.641209,-0.12572 -0.967121,-0.14203 -0.378079,5e-5 -0.756158,1.3e-4 -1.134234,5.3e-4 -0.378394,2.6e-4 -0.756788,0.001 -1.135181,5.3e-4 -0.373386,-0.002 -0.747234,-0.003 -1.119773,-0.0312 -0.335388,-0.0312 -0.664858,-0.0911 -0.995711,-0.15254 -0.364982,-0.0142 -0.730523,-7.9e-4 -1.095698,-0.005 -0.379045,-5e-5 -0.758201,8e-4 -1.137087,-0.0119 -0.384196,-0.0165 -0.768088,-0.0452 -1.146722,-0.11577 -0.37138,-0.0617 -0.741458,-0.0768 -1.11804,-0.0627 -0.377975,0 -0.755951,0 -1.133927,0 -0.377976,0 -0.755954,0 -1.13393,0 -0.377976,0 -0.755952,0 -1.133927,0 -0.377976,0 -0.755952,0 -1.133931,0 -0.377975,0 -0.755951,0 -1.133927,0 -0.377976,0 -0.755952,0 -1.133927,0 -0.377979,0 -0.755955,0 -1.13393,0 -0.377976,0 -0.755952,0 -1.133928,0 -0.377976,0 -0.755954,0 -1.13393,0 -0.377976,0 -0.755952,0 -1.133927,0 -0.377976,0 -0.755949,0 -1.133925,0 -0.377976,-1e-5 -0.755949,-1e-5 -1.133922,0 -0.378045,4e-5 -0.756087,8e-5 -1.134129,2.7e-4 -0.378378,2.6e-4 -0.756753,0.001 -1.135131,7.9e-4 -0.375462,-5.3e-4 -0.751168,-5.3e-4 -1.126252,-0.0196 -0.345702,-0.0226 -0.689306,-0.0624 -1.027287,-0.14122 -0.34984,-0.0545 -0.705117,-0.0205 -1.057936,-0.0298 -0.377939,-2.7e-4 -0.755878,-0.001 -1.133814,-8e-4 -0.376463,8e-4 -0.753152,8e-4 -1.129231,0.0199 -0.376727,0.0238 -0.751049,0.0676 -1.122098,0.13832 -0.381728,0.0499 -0.766302,0.0282 -1.150501,0.032 -0.377976,0 -0.755954,0 -1.13393,0 -0.377976,0 -0.755952,0 -1.133928,0 -0.377975,0 -0.755951,0 -1.13393,0 -0.377975,0 -0.755951,0 -1.133927,0 -0.377976,1e-5 -0.755949,1e-5 -1.133925,1e-5 -0.377976,0 -0.755951,1e-5 -1.133927,0 -0.37805,-2e-5 -0.7561,-4e-5 -1.13415,-2.6e-4 -0.378328,-2.6e-4 -0.756653,-8e-4 -1.13498,-0.001 -0.37464,9e-5 -0.749411,-7.9e-4 -1.123871,0.0125 -0.343421,0.0162 -0.686932,0.0428 -1.022689,0.12146 -0.352655,0.0697 -0.706538,0.0615 -1.06509,0.0556 -0.377902,-5.3e-4 -0.755806,-0.002 -1.133703,2.3e-4 -0.375544,0.003 -0.751808,0.007 -1.125699,0.0465 -0.374393,0.0454 -0.740635,0.13463 -1.115274,0.17458 -0.331227,0.0327 -0.655227,0.0991 -0.982856,0.15494 -0.371369,0.009 -0.743527,0.0102 -1.113411,0.0491 -0.381374,0.0438 -0.757986,0.13105 -1.142217,0.14105 -0.38099,-4e-5 -0.762071,-7.9e-4 -1.142935,0.0105 -0.415729,0.0158 -0.831147,0.044 -1.242478,0.10915 -0.410461,0.0612 -0.819084,0.088 -1.234456,0.0873 -0.428001,0.0229 -0.85546,0.0604 -1.27709,0.14045 -0.381949,0.0501 -0.766795,0.028 -1.151222,0.0316 -0.407541,-5.3e-4 -0.815082,-0.001 -1.222619,-0.003 -0.483128,-0.002 -0.966476,-0.007 -1.449442,0.008 0,0 2.720812,-1.97678 2.720812,-1.97678 z"
       inkscape:connector-curvature="0" />
    <path
       style="fill:#000000;fill-opacity:1;fill-rule:evenodd;stroke:#000000;stroke-width:0;stroke-linecap:butt;stroke-linejoin:miter;stroke-miterlimit:4;stroke-dasharray:none;stroke-dashoffset:0;stroke-opacity:1;paint-order:normal"
       id="path1698"
       d="m 37.391302,231.1477 c -0.339899,-0.12995 -0.656605,-0.30489 -1.010133,-0.39806 -0.296144,-0.1067 -0.570443,-0.26365 -0.867536,-0.36536 -0.252099,-0.12843 -0.495985,-0.28146 -0.762954,-0.37759 -0.247069,-0.13208 -0.489986,-0.28295 -0.754621,-0.3781 -0.237237,-0.15754 -0.492348,-0.28822 -0.722803,-0.4542 -0.25862,-0.10779 -0.477845,-0.27456 -0.709523,-0.42812 -0.238669,-0.13166 -0.472021,-0.26951 -0.714183,-0.39675 -0.219401,-0.16396 -0.400954,-0.36055 -0.666678,-0.44466 -0.243336,-0.1484 -0.504204,-0.27057 -0.73815,-0.43258 -0.268974,-0.15896 -0.54271,-0.31254 -0.780595,-0.51658 -0.222599,-0.17396 -0.486503,-0.28035 -0.720272,-0.43428 -0.03962,-0.0209 -0.08163,-0.0378 -0.118863,-0.0627 -0.175117,-0.1172 -0.06124,-0.0762 -0.230414,-0.17022 -0.120781,-0.0671 -0.249302,-0.0939 -0.371752,-0.16116 -0.260221,-0.11739 -0.535719,-0.21262 -0.780389,-0.36086 -0.250717,-0.12952 -0.520325,-0.22823 -0.759925,-0.37761 -0.250442,-0.15943 -0.508482,-0.32206 -0.74243,-0.50703 -0.232521,-0.17688 -0.465495,-0.34727 -0.717542,-0.4964 -0.209594,-0.18986 -0.470379,-0.29693 -0.685196,-0.48065 -0.249676,-0.19773 -0.468423,-0.43928 -0.690518,-0.66886 -0.185757,-0.29219 -0.474662,-0.48433 -0.688145,-0.7509 -0.181586,-0.22257 -0.382823,-0.4278 -0.566337,-0.64842 -0.183592,-0.19176 -0.382069,-0.36976 -0.558191,-0.56871 -0.189716,-0.18704 -0.389251,-0.36626 -0.566428,-0.56582 -0.190033,-0.18727 -0.38971,-0.36695 -0.567069,-0.56687 -0.189958,-0.18736 -0.389626,-0.36704 -0.566979,-0.56697 -0.189948,-0.18736 -0.389614,-0.36704 -0.566964,-0.56697 -0.21336,-0.1473 -0.414624,-0.31291 -0.627476,-0.46245 -0.190119,-0.20095 -0.444644,-0.31135 -0.651706,-0.49274 -0.203193,-0.17213 -0.412643,-0.32892 -0.641734,-0.46633 -0.260777,-0.0925 -0.452499,-0.30048 -0.702045,-0.41346 -0.246261,-0.14035 -0.447115,-0.33722 -0.668859,-0.50989 -0.03449,-0.0365 -0.06899,-0.0731 -0.103482,-0.1096 0,0 2.868566,-1.75661 2.868566,-1.75661 v 0 c 0.0283,0.0267 0.0566,0.0533 0.08491,0.08 0.198648,0.16898 0.40213,0.33198 0.632787,0.45633 0.23897,0.14526 0.464669,0.31194 0.717116,0.43523 0.228999,0.15619 0.45174,0.31696 0.662317,0.49748 0.215785,0.1586 0.448842,0.29394 0.643419,0.47999 0.221167,0.1713 0.461045,0.32065 0.661442,0.51649 0.18534,0.19255 0.378234,0.37777 0.566964,0.56697 0.185339,0.19255 0.37823,0.37777 0.566968,0.56695 0.185321,0.1925 0.378201,0.37768 0.567,0.56673 0.185351,0.1923 0.378342,0.37716 0.566827,0.56636 0.186629,0.19471 0.380753,0.38208 0.56404,0.58005 0.189719,0.21752 0.380349,0.4338 0.563299,0.65707 0.212772,0.2513 0.486729,0.44726 0.668745,0.72699 0.218123,0.21683 0.43005,0.44428 0.678385,0.62685 0.219267,0.15452 0.455675,0.2831 0.664759,0.45217 0.248609,0.16614 0.491514,0.33718 0.727517,0.52073 0.235525,0.16319 0.471638,0.32881 0.722894,0.46669 0.254025,0.12106 0.504951,0.24811 0.756901,0.37329 0.258204,0.11683 0.514947,0.23602 0.77371,0.35142 0.263379,0.11263 0.496349,0.26449 0.737111,0.41786 0.258538,0.13951 0.51044,0.29329 0.742062,0.47463 0.241749,0.18052 0.50423,0.32733 0.763015,0.48158 0.235191,0.13152 0.45972,0.28183 0.707615,0.38951 0.249262,0.1302 0.448965,0.32087 0.685592,0.47093 0.245095,0.14026 0.496454,0.26874 0.732893,0.42404 0.225584,0.15941 0.470174,0.28198 0.706542,0.42369 0.228563,0.13583 0.443484,0.29467 0.687085,0.4036 0.253604,0.12182 0.50163,0.25505 0.754657,0.37802 0.253418,0.12155 0.501206,0.25492 0.757205,0.37112 0.279416,0.1231 0.557069,0.25017 0.845913,0.35064 0.350964,0.12548 0.68239,0.29859 1.038975,0.4101 0,0 -2.797335,1.87406 -2.797335,1.87406 z"
       inkscape:connector-curvature="0" />
    <path
       style="fill:#000000;fill-opacity:1;fill-rule:evenodd;stroke:#000000;stroke-width:0;stroke-linecap:butt;stroke-linejoin:miter;stroke-miterlimit:4;stroke-dasharray:none;stroke-dashoffset:0;stroke-opacity:1;paint-order:normal"
       id="path1700"
       d="m 19.055429,215.4006 c 0.06059,0.34769 0.117773,0.69489 0.147307,1.04671 0.02488,0.36898 0.02521,0.73901 0.02638,1.10865 -0.004,0.3765 0.0096,0.75343 -0.01061,1.12951 -0.05968,0.32606 -0.120868,0.65006 -0.151241,0.98049 -0.02701,0.36652 -0.02784,0.73428 -0.02944,1.10158 0.01764,0.39064 -0.0093,0.77438 -0.07297,1.15939 -0.06728,0.36792 -0.09208,0.74098 -0.106396,1.11409 -0.01085,0.37627 -0.0099,0.75274 -0.0099,1.12913 -0.01986,0.34522 0.0066,0.67931 0.07476,1.01683 0.07353,0.34982 0.09416,0.70689 0.107502,1.06311 0.01039,0.37718 0.0094,0.75455 0.0092,1.13183 -4.15e-4,0.37831 -8.33e-4,0.75663 -0.0011,1.13495 0.0028,0.35154 -0.02196,0.70231 0.04202,1.04936 0.07925,0.33969 0.11219,0.68635 0.13182,1.03378 0.01638,0.37587 0.01588,0.75219 0.01626,1.12834 -1.3e-4,0.37839 -7.09e-4,0.75679 -0.001,1.13518 -2.58e-4,0.37803 -2.88e-4,0.75607 -3.15e-4,1.1341 -1.4e-5,0.37797 -7e-6,0.75595 -4e-6,1.13392 3e-6,0.37798 4e-6,0.75595 5e-6,1.13393 0,0.37797 0,0.75595 0,1.13392 0,0.37798 0,0.75596 0,1.13393 0.02707,0.39072 -0.04218,0.77267 -0.102994,1.15628 -0.05797,0.36876 -0.07279,0.74198 -0.08199,1.11453 -0.0066,0.3769 -0.0054,0.75388 -0.0051,1.13082 4.98e-4,0.37801 7.99e-4,0.75602 9.66e-4,1.13403 7.4e-5,0.189 9.5e-5,0.378 1.18e-4,0.56701 0,0 -2.982982,1.51994 -2.982982,1.51994 v 0 c -1.3e-5,-0.18898 -2.5e-5,-0.37795 -7.6e-5,-0.56692 -1.19e-4,-0.37795 -3.17e-4,-0.75589 -8.46e-4,-1.13383 -4.77e-4,-0.37901 -0.0017,-0.75804 0.002,-1.13704 0.0058,-0.38503 0.01431,-0.77087 0.06329,-1.15333 0.05217,-0.37062 0.153358,-0.7345 0.124683,-1.11158 0,-0.37797 0,-0.75595 0,-1.13392 0,-0.37798 0,-0.75595 0,-1.13393 -1e-6,-0.37798 -1e-6,-0.75595 -4e-6,-1.13392 -3e-6,-0.37798 -10e-6,-0.75596 -2e-6,-1.13394 1.5e-5,-0.37811 3.1e-5,-0.75621 2.44e-4,-1.13432 2.52e-4,-0.37827 7.41e-4,-0.75654 0.0011,-1.1348 4.4e-5,-0.37081 0.0011,-0.74172 -0.01087,-1.11238 -0.01449,-0.33171 -0.03727,-0.66398 -0.114092,-0.98817 -0.07722,-0.36836 -0.07429,-0.73555 -0.06524,-1.11125 1.83e-4,-0.37833 5.02e-4,-0.75666 0.001,-1.13498 3.44e-4,-0.37371 0.0016,-0.74746 -0.0057,-1.12111 -0.0094,-0.33806 -0.02192,-0.67759 -0.08718,-1.01042 -0.07309,-0.35904 -0.129053,-0.71099 -0.09848,-1.07985 -3.97e-4,-0.37959 -0.0016,-0.75921 0.005,-1.13875 0.0096,-0.38599 0.02508,-0.77279 0.08711,-1.15458 0.06243,-0.37023 0.131708,-0.73164 0.0965,-1.11014 2.32e-4,-0.37381 -5.3e-4,-0.74781 0.01562,-1.12135 0.01905,-0.33602 0.04773,-0.6728 0.139808,-0.99811 0.08527,-0.35387 0.0122,-0.7292 0.03629,-1.09048 -6.61e-4,-0.36185 -3.7e-4,-0.72394 -0.01865,-1.08544 -0.02197,-0.33708 -0.05672,-0.6748 -0.142931,-1.00239 0,0 2.970953,-1.58841 2.970953,-1.58841 z"
       inkscape:connector-curvature="0" />
    <path
       style="fill:#000000;fill-opacity:1;fill-rule:evenodd;stroke:#000000;stroke-width:0;stroke-linecap:butt;stroke-linejoin:miter;stroke-miterlimit:4;stroke-dasharray:none;stroke-dashoffset:0;stroke-opacity:1;paint-order:normal"
       id="path1702"
       d="m 16.455318,246.51044 c 0.239522,-0.34979 0.489249,-0.69547 0.773779,-1.01028 0.25323,-0.28855 0.526872,-0.55595 0.826895,-0.79565 0.244187,-0.19077 0.465835,-0.40746 0.70267,-0.60628 0.205361,-0.2292 0.437348,-0.43182 0.648235,-0.65531 0.195934,-0.19152 0.401273,-0.37508 0.585348,-0.57832 0.189528,-0.18769 0.388309,-0.36771 0.566863,-0.56628 0.205697,-0.19651 0.399764,-0.4022 0.615314,-0.58895 0.238276,-0.17406 0.480498,-0.3467 0.693202,-0.55191 0.239562,-0.19983 0.510537,-0.35928 0.763863,-0.5423 1.861321,-1.18629 6.879386,-3.99816 0.926814,-0.57875 1.050617,-0.66152 1.428566,-0.90235 3.152524,-1.7932 0.940271,-0.48588 -3.661383,2.12476 -2.757446,1.57423 0.985989,-0.60051 1.997505,-1.15819 3.003693,-1.7242 0.445341,-0.25052 -0.136092,0.15989 0.254649,-0.12825 0.293688,-0.14068 0.592317,-0.255 0.913542,-0.31708 0.134516,-0.0985 0.309183,-0.10587 0.456431,-0.16859 0.141644,-0.0603 0.253376,-0.13803 0.404796,-0.18474 0.101777,-0.11607 0.256016,-0.12514 0.383016,-0.18932 0.135222,-0.0683 0.227477,-0.14179 0.37751,-0.18964 0.09902,-0.11789 0.251143,-0.12564 0.3771,-0.18929 0.135276,-0.0684 0.227332,-0.14143 0.377545,-0.18908 0.03688,-0.0274 0.0714,-0.0583 0.110625,-0.0822 0.861078,-0.52479 -3.498377,2.00756 -2.618192,1.5155 1.012318,-0.56593 2.005832,-1.16508 3.018295,-1.73075 0.919067,-0.51349 -1.823508,1.05275 -2.738084,1.57419 -0.04582,0.0261 0.08765,-0.0587 0.131481,-0.088 1.005002,-0.57617 2.007418,-1.15687 3.015005,-1.7285 0.918735,-0.52122 -1.831214,1.0534 -2.748444,1.57727 -0.08952,0.0511 0.175794,-0.10779 0.265095,-0.15929 3.068122,-1.76967 1.916911,-1.36661 3.181136,-1.79611 -0.332639,0.14719 0.908263,-0.511 0.577766,-0.31909 -3.058875,1.7762 -3.597366,2.12873 -2.594899,1.47895 0.239493,-0.16021 0.469329,-0.33172 0.71791,-0.47899 1.166917,-0.76045 2.405638,-1.57587 3.71493,-2.12812 -2.908703,1.66139 -4.536862,2.59642 0.296828,-0.18642 0.911636,-0.52484 -1.819438,1.05637 -2.733528,1.57692 -0.04491,0.0256 0.0806,-0.0654 0.125176,-0.0915 0.998053,-0.58579 2.020448,-1.1309 3.002009,-1.74392 0.897713,-0.56066 -1.833551,1.05782 -2.750327,1.58673 1.065171,-0.73854 2.212018,-1.2564 3.33533,-1.97878 0.854753,-0.54968 -3.480583,2.09423 -2.645993,1.5144 0.241906,-0.12359 0.41607,-0.33868 0.647557,-0.47625 0.23393,-0.14672 0.438256,-0.3287 0.651488,-0.5026 0.244546,-0.17769 0.4796,-0.36744 0.720349,-0.55013 0.194618,-0.20152 0.411565,-0.36962 0.631337,-0.54058 0.220491,-0.14617 0.431587,-0.31328 0.616238,-0.50343 0.208173,-0.16938 0.427841,-0.32809 0.64806,-0.48291 0.193941,-0.19483 0.408349,-0.35815 0.624704,-0.52531 0.236669,-0.13325 0.410665,-0.34798 0.642729,-0.48631 0.24355,-0.31766 0.427224,0.0378 0.308366,0.27516 -0.135607,0.0678 -0.06185,0.038 -0.222829,0.0854 0,0 2.645212,-2.0792 2.645212,-2.0792 v 0 c 0.150342,-0.0767 0.07672,-0.0409 0.220633,-0.1078 0.319325,0.0215 0.575329,0.4585 0.175397,0.58771 -0.21177,0.18522 0.0088,0.0122 -0.229449,0.14291 -0.157691,0.0865 -0.264548,0.25249 -0.407546,0.35892 -0.238496,0.13087 -0.447053,0.28923 -0.644763,0.47306 -0.172136,0.20387 -0.409334,0.37137 -0.644586,0.49149 -0.217801,0.16065 -0.385875,0.38005 -0.599963,0.54653 -0.243161,0.13359 -0.454775,0.29628 -0.655163,0.48584 -0.197167,0.23006 -0.458693,0.4139 -0.71251,0.57511 -0.215386,0.17484 -0.408456,0.36991 -0.640929,0.51728 -0.211166,0.1854 0.0086,0.0124 -0.229003,0.14317 -0.158021,0.087 -0.264195,0.2536 -0.40919,0.35875 -1.117684,0.59694 -0.573575,0.30434 -3.105454,1.81135 -0.912067,0.54288 1.831635,-1.07306 2.749183,-1.60662 0.03913,-0.0228 -0.07889,0.0453 -0.113781,0.0741 -0.229429,0.18958 0.03308,0.0303 -0.226832,0.17238 -9.966842,5.8293 1.873771,-1.09946 -0.385293,0.23953 -0.996773,0.5908 -2.048288,1.0967 -2.993925,1.7663 -0.09533,0.0675 7.871316,-4.55833 -0.309912,0.16355 -0.158365,0.0817 -0.317513,0.15921 -0.472453,0.2472 -0.04572,0.026 -0.182663,0.10422 -0.137294,0.0776 2.831143,-1.65799 3.637266,-2.18508 2.636115,-1.53365 -0.209789,0.2163 -0.501906,0.30073 -0.709501,0.51985 -1.239425,0.72237 -2.447967,1.51078 -3.741397,2.13251 -1.039982,0.56923 -0.718981,0.3951 2.576981,-1.49892 0.08858,-0.0509 -0.173809,0.1075 -0.262338,0.15849 -1.001919,0.57715 -1.994825,1.17007 -3.00295,1.73631 -0.918493,0.51589 1.822686,-1.05684 2.73403,-1.58526 -1.043114,0.61518 -2.114967,1.18275 -3.13806,1.83068 -0.888112,0.56245 3.647031,-2.09288 2.730323,-1.57835 -1.009859,0.56682 -2.006308,1.1572 -3.009794,1.73522 -0.150846,0.0869 -0.09039,0.0559 -0.25339,0.12141 -0.247363,0.13486 -0.498543,0.2621 -0.754691,0.37835 -0.249348,0.13531 -0.503755,0.2631 -0.766811,0.36856 -0.282825,0.13081 -0.576276,0.2383 -0.877516,0.31903 -0.301751,0.10036 -0.594071,0.23131 -0.86899,0.39129 -0.08798,0.036 -0.339332,0.17118 -0.25703,0.1236 0.916725,-0.53 3.694129,-2.07011 2.751358,-1.58796 -0.613488,0.31375 -7.034218,4.05935 -0.266388,0.13756 0.04468,-0.0259 -0.09135,0.0482 -0.137023,0.0723 -1.002579,0.58052 -1.998106,1.1734 -3.007737,1.74158 -0.911955,0.51321 1.809339,-1.05189 2.714685,-1.57667 0.05181,-0.03 -0.104731,0.0585 -0.15407,0.0924 -0.585546,0.40285 0.294738,-0.16093 -0.326834,0.20875 -0.05566,0.0331 -0.107195,0.0727 -0.160792,0.10902 -0.264718,0.15419 -0.492802,0.3691 -0.768066,0.49956 -0.242045,0.17667 -0.438636,0.41016 -0.686594,0.582 -0.247163,0.13465 -0.449233,0.33021 -0.625618,0.54453 -0.21326,0.1596 -0.38057,0.37879 -0.566881,0.56686 -0.219758,0.1648 -0.391402,0.39086 -0.587486,0.58178 -0.240773,0.18383 -0.438968,0.4241 -0.654966,0.63473 -0.197939,0.24517 -0.461623,0.43934 -0.704749,0.63772 -0.276,0.25947 -0.61415,0.45884 -0.840088,0.771 -0.297763,0.28266 -0.544216,0.6016 -0.786926,0.9312 0,0 -3.075646,1.36317 -3.075646,1.36317 z"
       inkscape:connector-curvature="0" />
    <path
       style="fill:#000000;fill-opacity:1;fill-rule:evenodd;stroke:#000000;stroke-width:0;stroke-linecap:butt;stroke-linejoin:miter;stroke-miterlimit:4;stroke-dasharray:none;stroke-dashoffset:0;stroke-opacity:1;paint-order:normal"
       id="path1706"
       d="m 15.865298,246.37483 c 0.07907,-0.39582 0.146163,-0.7902 0.304313,-1.16371 0.113264,-0.29924 0.319535,-0.51046 0.554576,-0.71356 1.067902,-0.737 0.41329,-0.29007 3.135251,-1.83864 0.04981,-0.0283 0.111528,-0.0291 0.163373,-0.0535 0.151448,-0.0713 0.269173,-0.1511 0.432503,-0.2034 0.265593,-0.16986 0.570893,-0.28958 0.875626,-0.37243 0.31676,-0.0621 0.605348,-0.21037 0.895786,-0.34343 -0.921731,0.52647 -1.842041,1.05543 -2.765191,1.57941 -0.04018,0.0228 0.07604,-0.0527 0.116052,-0.0758 0.999949,-0.57726 2.001227,-1.15223 3.003639,-1.72521 0.922203,-0.52713 -1.840515,1.06106 -2.763012,1.58767 -0.07775,0.0444 0.151146,-0.0962 0.229344,-0.1398 0.224822,-0.1529 0.416013,-0.34265 0.61513,-0.52608 0.221338,-0.14971 0.446724,-0.29755 0.641226,-0.48179 0.200823,-0.17344 0.399924,-0.35333 0.578453,-0.55039 1.007434,-0.87415 2.605574,-1.62185 3.530179,-2.1615 -0.920099,0.53151 -1.838165,1.06657 -2.760297,1.59455 -0.04033,0.0231 0.07415,-0.0565 0.114462,-0.0796 1.001791,-0.57476 1.995002,-1.16521 3.01138,-1.71376 0.934297,-0.50424 -3.667406,2.14026 -2.76507,1.58082 2.596503,-1.6098 1.918844,-1.38433 3.140736,-1.77091 1.512325,-0.97047 -3.963827,2.47971 -2.155444,1.18783 1.049456,-0.70924 2.130249,-1.22256 3.265929,-1.91493 0.902108,-0.54996 -1.829761,1.05691 -2.746902,1.58142 -0.08237,0.0471 0.160242,-0.10185 0.242862,-0.14853 1.798235,-1.1541 6.098754,-3.52405 0.348891,-0.23489 -0.04052,0.0232 0.0751,-0.0558 0.115604,-0.079 1.002087,-0.57432 1.994329,-1.16665 3.01176,-1.71332 0.935212,-0.5025 -1.84335,1.05383 -2.765025,1.58075 0.999792,-0.57554 1.999585,-1.15107 2.999377,-1.72661 0.04693,-0.0149 0.09684,-0.0225 0.140795,-0.0447 0.04094,-0.0207 0.07121,-0.0583 0.110381,-0.0821 0.130188,-0.0792 0.273812,-0.1076 0.420658,-0.13751 -0.0899,0.0224 0.339502,-0.1723 0.257018,-0.12472 -0.880105,0.50774 -3.53418,2.00692 -2.65165,1.50341 6.517637,-3.71854 1.635445,-0.92639 0.245318,-0.13051 0.998065,-0.57816 1.996129,-1.15632 2.994194,-1.73449 0.04641,-0.0155 0.181498,-0.0711 0.139238,-0.0464 -0.917008,0.53494 -3.666541,2.14106 -2.766043,1.57878 0.978528,-0.61101 1.989601,-1.16888 3.0003,-1.72505 0.891821,-0.49077 -3.470781,2.11863 -2.652758,1.5128 0.170244,0.19674 2.510651,-1.75282 3.696391,-1.97177 0.268502,-0.12285 0.532246,-0.2183 0.781529,-0.38121 0.315011,-0.16447 0.675827,-0.23107 0.9855,-0.40121 0.05172,-0.0224 0.102306,-0.0476 0.15515,-0.0672 0.367119,-0.13611 -0.02741,0.0446 0.289002,-0.13373 0.04372,-0.0246 0.17928,-0.09 0.135837,-0.0649 -2.937591,1.69819 -3.63165,2.17397 -2.644631,1.50348 7.33593,-4.2251 0.863499,-0.49654 0.240083,-0.14047 -0.04033,0.023 0.07637,-0.053 0.115939,-0.0773 0.07549,-0.0464 0.143956,-0.10371 0.220268,-0.1487 0.994355,-0.58623 1.995133,-1.16151 2.992699,-1.74226 -4.820897,2.96584 -3.168111,1.95562 -2.182222,1.15516 0.228054,-0.23486 0.476901,-0.44846 0.704274,-0.68368 0.221315,-0.1693 0.349385,-0.42018 0.525909,-0.62968 0.189078,-0.21178 0.337971,-0.45218 0.520175,-0.66985 0.182579,-0.23492 0.369405,-0.47019 0.582747,-0.67819 0.195014,-0.24209 0.42972,-0.44599 0.642278,-0.67129 1.01126,-0.85927 2.516873,-1.50318 3.479622,-2.10204 0.893877,-0.55602 -1.823304,1.05273 -2.734956,1.5791 1.082564,-0.75728 0.0095,-0.0124 3.143441,-1.822 0.914772,-0.52821 -3.638838,2.14586 -2.748194,1.57791 1.658781,-1.05778 2.034985,-1.42018 3.275702,-1.83094 0.04502,-0.008 0.09004,-0.016 0.135059,-0.024 0,0 -2.665193,2.05368 -2.665193,2.05368 v 0 c -0.03837,0.0162 -0.07675,0.0323 -0.115118,0.0485 -0.08284,0.0386 -0.321293,0.17444 -0.242197,0.12861 0.914671,-0.52988 3.663917,-2.11036 2.743395,-1.59071 -10.06436,5.68153 1.930101,-0.9815 -0.403804,0.22953 -9.611878,5.64992 2.26122,-1.35346 -0.756979,0.4824 -0.241285,0.18345 -0.441017,0.42312 -0.655134,0.6357 -0.179685,0.23387 -0.412954,0.4224 -0.599098,0.65224 -0.07961,0.12308 -0.195169,0.21556 -0.271622,0.33731 -0.07583,0.12076 -0.102691,0.2585 -0.242166,0.33187 -0.15723,0.23852 -0.356377,0.44663 -0.503683,0.69361 -0.257758,0.1981 -0.472005,0.45284 -0.710229,0.67322 -0.894354,1.00677 -2.692433,1.61777 -3.53792,2.23585 0.916909,-0.53567 1.832712,-1.07324 2.750727,-1.60701 0.03849,-0.0224 -0.0778,0.0443 -0.112022,0.0728 -0.03647,0.0304 -0.06097,0.0738 -0.09869,0.10258 -1.068949,0.81556 -6.745635,3.77384 -0.360988,0.20624 -1.199282,0.74988 -2.381499,1.54216 -3.695034,2.06545 -0.334457,0.11497 -0.662919,0.2536 -0.970725,0.42834 -0.268985,0.12587 -0.544763,0.2392 -0.831076,0.31925 -1.170897,0.4453 -2.849074,1.67988 2.096219,-1.30407 -1.01288,0.63968 -2.123739,1.12539 -3.095335,1.82618 -0.86035,0.62056 3.700652,-2.07383 2.755836,-1.59153 -0.035,0.0179 -7.697259,4.42476 -0.370199,0.19418 -3.472754,2.0011 -4.406076,2.53997 -0.242984,0.13709 0.03975,-0.0229 -0.07928,0.0463 -0.119133,0.0691 -1.001809,0.57252 -2.001287,1.14914 -3.005842,1.71683 -0.08613,0.0487 -0.181018,0.0712 -0.274639,0.0992 -1.143187,0.49728 -2.781354,1.7776 2.122781,-1.27358 -5.205006,2.98506 -2.821666,1.62271 -0.24794,0.12981 0.03955,-0.0229 -0.08153,0.0415 -0.121047,0.0645 -0.996881,0.58019 -1.994822,1.15859 -2.988071,1.74497 -0.873347,0.5156 3.80022,-2.26887 2.63093,-1.5282 -0.162743,0.15957 -0.04097,0.0599 -0.235795,0.17282 -1.000163,0.57979 -1.995681,1.16759 -2.997703,1.74416 -0.913579,0.52568 1.820842,-1.06226 2.73237,-1.59148 0.09127,-0.053 -0.375487,0.21838 -0.253476,0.18974 -0.134267,0.0696 -0.243969,0.15959 -0.373708,0.23584 -0.788567,0.46345 -2.121418,1.37495 -3.236732,1.87246 -1.197218,0.67983 3.266633,-1.85451 2.632846,-1.52284 -1.022115,0.53489 -1.9791,1.1887 -3.002245,1.72162 -0.940653,0.48995 1.837254,-1.06021 2.754552,-1.59261 0.03922,-0.0228 -0.08016,0.0424 -0.120233,0.0637 -0.995,0.5826 -1.99,1.16521 -2.985001,1.74781 0.916544,-0.53637 1.833088,-1.07274 2.749631,-1.60912 -0.03724,0.024 -0.07771,0.0437 -0.111729,0.0721 -0.104145,0.087 -0.202323,0.18503 -0.317927,0.25891 -0.03733,0.0239 -0.08156,0.0346 -0.122333,0.0519 -0.214083,0.161 -0.380423,0.38167 -0.571742,0.56729 -0.22156,0.15697 -0.396681,0.37025 -0.628226,0.51627 -0.258532,0.10982 -0.395377,0.34806 -0.62508,0.49941 -0.145393,0.15133 -0.04231,0.0651 -0.219152,0.16744 -0.99824,0.57772 -1.998042,1.15278 -2.992555,1.7369 -0.914582,0.53716 1.834474,-1.06525 2.752759,-1.59606 0.03988,-0.0231 -0.07832,0.0485 -0.117482,0.0727 -0.99953,0.57704 -1.99906,1.15408 -2.99859,1.73111 -0.29247,0.13216 -0.605996,0.21236 -0.910416,0.31194 -0.294081,0.12063 -0.577751,0.2612 -0.866699,0.39157 -0.140819,0.0713 -0.283856,0.13839 -0.424421,0.20945 -0.04894,0.0247 -0.190042,0.10956 -0.142671,0.0819 2.782943,-1.62326 3.593644,-2.18348 2.601914,-1.50363 -0.2572,0.13916 -0.471117,0.30529 -0.63518,0.55117 -0.167838,0.34807 -0.315858,0.69073 -0.321227,1.08726 0,0 -3.031331,1.46991 -3.031331,1.46991 z"
       inkscape:connector-curvature="0" />
    <path
       style="fill:#000000;fill-opacity:1;fill-rule:evenodd;stroke:#000000;stroke-width:0;stroke-linecap:butt;stroke-linejoin:miter;stroke-miterlimit:4;stroke-dasharray:none;stroke-dashoffset:0;stroke-opacity:1;paint-order:normal"
       id="path1718"
       d="m 46.040002,187.88664 c -0.228614,0.34964 -0.502579,0.66563 -0.728245,1.01711 -0.210941,0.29346 -0.394594,0.60457 -0.568203,0.92114 -0.16686,0.25763 -0.331317,0.51651 -0.504156,0.76987 -0.128055,0.24551 -0.270716,0.47865 -0.428458,0.70606 -0.118954,0.251 -0.310158,0.455 -0.44409,0.69613 -0.137078,0.24015 -0.319741,0.44464 -0.491119,0.6593 -0.204463,0.17598 -0.324274,0.42085 -0.49538,0.62539 -0.192394,0.24161 -0.347855,0.50931 -0.547036,0.74545 -0.159793,0.22751 -0.38267,0.39928 -0.534573,0.63169 -0.17499,0.21745 -0.321053,0.45292 -0.480536,0.68098 -0.181438,0.25095 -0.388257,0.48002 -0.588213,0.71569 -0.187728,0.25219 -0.380948,0.49942 -0.57548,0.74645 -0.180663,0.25871 -0.372933,0.50747 -0.567171,0.75598 -0.194966,0.26776 -0.394161,0.53317 -0.570034,0.81432 -0.178917,0.2381 -0.343099,0.48447 -0.513742,0.72787 -0.147235,0.22963 -0.31695,0.44946 -0.513138,0.63962 -0.183163,0.19403 -0.36313,0.39422 -0.562832,0.57185 -0.170037,0.22086 -0.423818,0.34222 -0.633172,0.51823 -0.997106,0.58175 -1.994212,1.16349 -2.991318,1.74524 -0.04944,0.0119 -0.101315,0.0163 -0.148299,0.0358 -0.484103,0.20043 0.260157,-0.0472 -0.249632,0.1305 -0.229383,0.08 -0.06758,-0.0128 -0.260031,0.11913 -0.175766,0.12268 -0.39443,0.10125 -0.589085,0.15547 -0.09467,0.0264 -0.180652,0.0779 -0.273477,0.11017 0.09096,-0.0239 -0.383395,0.19382 -0.290376,0.14002 3.428909,-1.98331 4.005719,-2.25094 -0.266565,0.17618 -0.04707,0.0267 -0.198117,0.0861 -0.151345,0.0589 0.912483,-0.53164 1.833406,-1.04865 2.750108,-1.57297 -1.000689,0.57791 -2.001376,1.15582 -3.002064,1.73372 -0.04841,0.0168 -0.18949,0.076 -0.145237,0.0502 0.915325,-0.5337 3.662283,-2.13214 2.760853,-1.5753 -0.981961,0.60659 -1.996825,1.15834 -3.002573,1.72461 -0.433812,0.24425 0.127578,-0.15447 -0.253485,0.12871 -2.309673,1.17127 9.723371,-5.45362 -0.400446,0.21544 -0.918624,0.5144 1.823574,-1.05288 2.73819,-1.57437 0.04578,-0.0261 -0.0857,0.0616 -0.131334,0.088 -1.003236,0.57917 -2.009976,1.15225 -3.014964,1.72838 5.452505,-2.7111 3.060901,-1.9819 2.179795,-1.18168 -0.131303,0.10492 -0.257242,0.2191 -0.373976,0.34037 0,0 -3.101111,1.31436 -3.101111,1.31436 v 0 c 0.110999,-0.14695 0.230806,-0.26734 0.354556,-0.40083 0.351921,-0.25069 -0.140743,0.1132 0.203789,-0.18723 0.979671,-0.85427 2.702138,-0.63485 3.356754,-1.98383 -0.911401,0.52845 -1.822608,1.05723 -2.734204,1.58534 -0.04523,0.0262 0.08995,-0.0533 0.135102,-0.0796 1.000772,-0.58387 2.023678,-1.1313 3.002662,-1.75101 0.888271,-0.56228 -3.645973,2.09514 -2.730329,1.57862 1.049111,-0.5918 2.08357,-1.20927 3.13043,-1.80505 0.08774,-0.0362 0.338445,-0.17157 0.256273,-0.12408 -0.917268,0.53022 -3.697423,2.06869 -2.752771,1.58897 0.0059,-0.003 7.716939,-4.42725 0.390581,-0.20427 1.002737,-0.57613 2.005516,-1.15219 3.008213,-1.72839 0.04528,-0.026 0.18094,-0.1044 0.13572,-0.0783 -0.910873,0.52615 -3.673606,2.04864 -2.732667,1.57837 1.037074,-0.51832 2.011738,-1.15313 3.021545,-1.72275 0.09544,-0.0538 0.208377,-0.087 0.311229,-0.12195 0.283017,-0.0915 0.580337,-0.13629 0.834504,-0.30516 1.165884,-0.41204 2.8767,-1.82416 -2.101051,1.311 0.225528,-0.14522 0.413258,-0.34004 0.656743,-0.45933 0.162042,-0.21084 0.376881,-0.3798 0.56606,-0.5642 0.160544,-0.2128 0.37374,-0.37881 0.53662,-0.5909 0.149844,-0.26653 0.329039,-0.508 0.511416,-0.75166 0.213305,-0.25243 0.364686,-0.56077 0.5637,-0.82375 0.193908,-0.25055 0.407437,-0.48293 0.566944,-0.75657 0.194281,-0.25097 0.408033,-0.48304 0.571736,-0.75462 0.193868,-0.24186 0.41144,-0.45709 0.587443,-0.71083 0.191887,-0.20523 0.307282,-0.45306 0.480338,-0.67082 0.182483,-0.20545 -0.0042,0.0226 0.153075,-0.23516 0.09533,-0.15632 0.263766,-0.26448 0.383836,-0.3996 0.176287,-0.25086 0.395653,-0.46799 0.54606,-0.73879 0.151522,-0.22942 0.346107,-0.42566 0.475316,-0.6718 0.206873,-0.15914 0.375256,-0.38404 0.517092,-0.59991 0.171963,-0.20614 0.268755,-0.46864 0.458946,-0.66487 0.110482,-0.26441 0.330324,-0.4507 0.421071,-0.72505 0.153008,-0.27269 0.336944,-0.5208 0.511945,-0.77853 0.217122,-0.29226 0.344813,-0.64338 0.56279,-0.93749 0.252537,-0.3196 0.451059,-0.68167 0.724836,-0.9868 0,0 3.075647,-1.36317 3.075647,-1.36317 z"
       inkscape:connector-curvature="0" />
    <path
       style="fill:#000000;fill-opacity:1;fill-rule:evenodd;stroke:#000000;stroke-width:0;stroke-linecap:butt;stroke-linejoin:miter;stroke-miterlimit:4;stroke-dasharray:none;stroke-dashoffset:0;stroke-opacity:1;paint-order:normal"
       id="path1720"
       d="m 53.276673,212.0459 c 0.236644,0.34594 0.498272,0.67216 0.753134,1.00432 0.190423,0.22738 0.410657,0.42625 0.606335,0.64817 0.216842,0.17036 0.332735,0.42761 0.511458,0.63213 0.156308,0.23124 0.376306,0.40479 0.559634,0.61255 0.237162,0.19334 0.37108,0.47431 0.568391,0.70242 0.177681,0.2365 0.402465,0.43227 0.596326,0.65563 0.223287,0.20809 0.432919,0.42732 0.60511,0.68044 0.1872,0.25619 0.394432,0.49203 0.648499,0.68391 0.256055,0.20129 0.487111,0.43209 0.73965,0.6369 0.173403,0.21519 0.399304,0.36117 0.610338,0.53073 0.233411,0.13092 0.395576,0.35268 0.633831,0.4746 0.236127,0.14768 0.433575,0.34235 0.651854,0.5128 0.239742,0.15891 0.496625,0.29998 0.727951,0.47245 0.277362,0.1838 0.568862,0.34662 0.821616,0.56423 0.246422,0.14197 0.467251,0.31856 0.700264,0.48055 0.210445,0.17534 0.390319,0.38344 0.598004,0.56125 0.241622,0.17988 0.470606,0.3774 0.712636,0.5573 0.21268,0.18237 0.397349,0.39503 0.609841,0.57703 0.190045,0.18762 0.365207,0.39289 0.567447,0.56784 0.188957,0.18792 0.364312,0.39241 0.566314,0.56684 0.181488,0.0638 0.267652,0.24149 0.409477,0.35502 0.359413,0.28772 -0.217051,-0.21923 0.20334,0.15804 0.207119,0.25008 0.432784,0.49106 0.68661,0.69415 0.261355,0.21568 0.499546,0.45862 0.760672,0.67393 0.200318,0.18744 0.380034,0.39779 0.587848,0.57698 0.228516,0.14004 0.451027,0.3003 0.642723,0.48904 0.203298,0.17822 0.406744,0.36151 0.587156,0.56381 0.190195,0.18745 0.389718,0.36771 0.567049,0.56798 0.189754,0.18751 0.389356,0.36717 0.566656,0.56708 0.271679,0.21292 0.499621,0.47138 0.747001,0.70958 0.221824,0.22842 0.427275,0.47627 0.665202,0.68822 0.189791,0.19019 0.366466,0.39667 0.570219,0.57243 0.184875,0.21539 0.410456,0.38892 0.600295,0.59965 0.23259,0.21585 0.402407,0.48449 0.614931,0.72072 0.270555,0.22743 0.535345,0.45613 0.749311,0.7392 0.228798,0.24038 0.424963,0.50989 0.662707,0.74135 0.2286,0.16355 0.461833,0.32612 0.662543,0.52407 0.224732,0.17942 0.41919,0.39288 0.632354,0.58554 0.243692,0.1628 0.469503,0.34901 0.699815,0.53073 0.232635,0.25241 0.520724,0.43683 0.76935,0.67166 0.251034,0.20961 0.508252,0.41688 0.733801,0.65441 0.250605,0.22623 0.468262,0.49458 0.672478,0.76346 0.20827,0.26205 0.446958,0.4966 0.664409,0.75003 0.198003,0.16924 0.342656,0.39655 0.574402,0.52243 0.230563,0.1502 0.426437,0.34236 0.642707,0.51066 0.225933,0.14193 0.453523,0.27628 0.69024,0.40136 0.217906,0.18269 0.479526,0.28922 0.696526,0.47373 0.245912,0.1818 0.509384,0.33729 0.738087,0.54118 0.247452,0.19654 0.520176,0.35658 0.756013,0.56731 0.242342,0.14279 0.461036,0.31767 0.691771,0.47788 0.191164,0.20078 0.445829,0.31192 0.653127,0.49398 0.243168,0.18316 0.505674,0.3373 0.733441,0.54008 0.209465,0.18269 0.425659,0.349 0.663953,0.49328 0.20597,0.19027 0.464849,0.29626 0.677794,0.47837 0.268356,0.1883 0.516054,0.40246 0.783376,0.59193 0.268224,0.14732 0.529261,0.31898 0.751117,0.53093 0.228365,0.13921 0.434144,0.30916 0.653074,0.46272 0.22506,0.22584 0.490905,0.40467 0.731816,0.6118 0.247857,0.19145 0.493721,0.39261 0.70825,0.62163 0.195924,0.18695 0.398484,0.37008 0.57834,0.5732 0.211108,0.21146 0.438107,0.40689 0.65769,0.61083 0.277876,0.22387 0.566124,0.43984 0.818026,0.69332 0.20402,0.25002 0.411117,0.49864 0.609089,0.75372 0.198977,0.23077 0.42404,0.43993 0.599472,0.68983 0.16396,0.23039 0.358217,0.43454 0.53662,0.6528 0.211553,0.17683 0.365305,0.39862 0.533529,0.61316 0.06755,0.17151 0.230683,0.23895 0.346972,0.36529 0.124146,0.15631 0.06174,0.086 0.184717,0.21316 0.243803,0.17308 0.406897,0.43624 0.647454,0.61035 0.217318,0.17256 0.411466,0.37235 0.627454,0.54621 0.19609,0.18407 0.372615,0.38998 0.576445,0.56566 0.124534,0.14041 0.0607,0.0782 0.188976,0.1891 0,0 -2.860739,1.76931 -2.860739,1.76931 v 0 c -0.134231,-0.13015 -0.07156,-0.0671 -0.188677,-0.18858 -0.190825,-0.1843 -0.375962,-0.37434 -0.569767,-0.55559 -0.204861,-0.18368 -0.41158,-0.36489 -0.621353,-0.54292 -0.230886,-0.20869 -0.430106,-0.4497 -0.673671,-0.64565 -0.184089,-0.20269 -0.402312,-0.37331 -0.548653,-0.60721 -0.16052,-0.21465 -0.332587,-0.41406 -0.525775,-0.6013 -0.188063,-0.22072 -0.375269,-0.44123 -0.544552,-0.67703 -0.177168,-0.24202 -0.407392,-0.44107 -0.594231,-0.67618 -0.190817,-0.24202 -0.375795,-0.49069 -0.584819,-0.71682 -0.254637,-0.24227 -0.52705,-0.46525 -0.800023,-0.68636 -0.23617,-0.20348 -0.47698,-0.40096 -0.689663,-0.62977 -0.185846,-0.19348 -0.379084,-0.37997 -0.571886,-0.56643 -0.214672,-0.21206 -0.442775,-0.41098 -0.68063,-0.5966 -0.244129,-0.1957 -0.498044,-0.37938 -0.731277,-0.58852 -0.220001,-0.16893 -0.45698,-0.31392 -0.669988,-0.49139 -0.227489,-0.18982 -0.476975,-0.34843 -0.725747,-0.50861 -0.262988,-0.20236 -0.52936,-0.39981 -0.797825,-0.59484 -0.218522,-0.15399 -0.45435,-0.28205 -0.660632,-0.45334 -0.23817,-0.16491 -0.467823,-0.33661 -0.683371,-0.53053 -0.237403,-0.18791 -0.495771,-0.34594 -0.734177,-0.53247 -0.215246,-0.15862 -0.447471,-0.29425 -0.642715,-0.47883 -0.229579,-0.17413 -0.476528,-0.32267 -0.70181,-0.50204 -0.24565,-0.19734 -0.513067,-0.36491 -0.755745,-0.56608 -0.236757,-0.18758 -0.49393,-0.34577 -0.73492,-0.52761 -0.217559,-0.15119 -0.451509,-0.27643 -0.667271,-0.43035 -0.246068,-0.14322 -0.498068,-0.27572 -0.723813,-0.45131 -0.200377,-0.1716 -0.40563,-0.33627 -0.624882,-0.48356 -0.228987,-0.1758 -0.417325,-0.39446 -0.618972,-0.60011 -0.223959,-0.25495 -0.449786,-0.50774 -0.661014,-0.77361 -0.203382,-0.25641 -0.428212,-0.49751 -0.665818,-0.72259 -0.228145,-0.22524 -0.470104,-0.4365 -0.715471,-0.64266 -0.250359,-0.21873 -0.522684,-0.41083 -0.760341,-0.64446 -0.242369,-0.18143 -0.476583,-0.37366 -0.716656,-0.55814 -0.207705,-0.19961 -0.421613,-0.39163 -0.637434,-0.58245 -0.216019,-0.188 -0.451204,-0.35188 -0.665969,-0.54143 -0.233088,-0.2522 -0.449689,-0.51926 -0.67804,-0.77562 -0.214482,-0.2686 -0.487413,-0.47843 -0.733806,-0.71647 -0.215487,-0.23176 -0.385881,-0.49689 -0.61758,-0.71265 -0.195334,-0.19455 -0.407977,-0.37169 -0.593574,-0.57657 -0.194365,-0.18873 -0.383302,-0.38316 -0.571005,-0.57844 -0.22578,-0.22697 -0.439634,-0.46555 -0.656294,-0.70114 -0.246848,-0.25002 -0.506772,-0.48165 -0.769577,-0.71445 -0.185346,-0.19262 -0.37823,-0.37792 -0.566809,-0.56734 -0.184942,-0.19257 -0.377254,-0.37805 -0.566233,-0.56661 -0.183427,-0.18853 -0.374732,-0.37004 -0.573809,-0.54193 -0.204865,-0.17497 -0.428467,-0.32424 -0.642057,-0.48799 -0.195101,-0.18893 -0.384397,-0.38371 -0.580162,-0.57197 -0.246407,-0.22676 -0.490665,-0.45561 -0.743879,-0.67489 -0.248878,-0.21466 -0.488651,-0.44074 -0.704982,-0.6886 -0.210389,-0.17143 -0.394314,-0.36934 -0.619025,-0.5229 -0.191815,-0.186 -0.378102,-0.37766 -0.566502,-0.56707 -0.191423,-0.18595 -0.377034,-0.37778 -0.566057,-0.56613 -0.196101,-0.1877 -0.386908,-0.38095 -0.593402,-0.55754 -0.240112,-0.19616 -0.489892,-0.37951 -0.729168,-0.57639 -0.189259,-0.18062 -0.37319,-0.36724 -0.577893,-0.53088 -0.230124,-0.17457 -0.477258,-0.32339 -0.705985,-0.49938 -0.257786,-0.19785 -0.538128,-0.3614 -0.807098,-0.54315 -0.25065,-0.16151 -0.508201,-0.31254 -0.747776,-0.49087 -0.199488,-0.17103 -0.403413,-0.33605 -0.627023,-0.47526 -0.224573,-0.15809 -0.420843,-0.35281 -0.65234,-0.50232 -0.225203,-0.16233 -0.423786,-0.35026 -0.61808,-0.54843 -0.238049,-0.21481 -0.476277,-0.429 -0.723609,-0.63322 -0.267806,-0.22494 -0.506931,-0.47236 -0.704414,-0.76221 -0.170907,-0.23695 -0.386275,-0.4349 -0.586914,-0.64618 -0.20161,-0.22215 -0.427535,-0.42298 -0.606147,-0.66462 -0.182404,-0.23191 -0.32843,-0.49338 -0.554681,-0.688 -0.197204,-0.20285 -0.412157,-0.3899 -0.574278,-0.62462 -0.165891,-0.20885 -0.298212,-0.44475 -0.503089,-0.62011 -0.207674,-0.22294 -0.420619,-0.44077 -0.609767,-0.68028 -0.241049,-0.32334 -0.472363,-0.65801 -0.743122,-0.95641 0,0 2.869406,-1.75837 2.869406,-1.75837 z"
       inkscape:connector-curvature="0" />
    <path
       style="fill:#000000;fill-opacity:1;fill-rule:evenodd;stroke:#000000;stroke-width:0;stroke-linecap:butt;stroke-linejoin:miter;stroke-miterlimit:4;stroke-dasharray:none;stroke-dashoffset:0;stroke-opacity:1;paint-order:normal"
       id="path1722"
       d="m 46.274079,186.99146 c 0.109063,0.35741 0.28667,0.68543 0.402894,1.04013 0.09427,0.30852 0.172976,0.62451 0.278011,0.92952 0.136305,0.29403 0.159398,0.61719 0.22869,0.92845 0.09097,0.29753 0.126989,0.60578 0.216908,0.9032 0.112953,0.31698 0.115303,0.65519 0.172987,0.98246 0.08002,0.30108 0.115321,0.60974 0.204713,0.9081 0.09801,0.30753 0.116695,0.62972 0.199811,0.9405 0.09836,0.33605 0.129455,0.68457 0.149103,1.03249 0.0057,0.37484 0.09365,0.74127 0.142227,1.11184 0.01971,0.35031 0.05822,0.69181 0.132554,1.03437 0.07681,0.3338 0.146597,0.6732 0.248719,1.00036 0.123965,0.31987 0.174979,0.65943 0.259987,0.99021 0.05719,0.34215 0.180946,0.6658 0.263681,1.00144 0.06741,0.29648 0.139801,0.59701 0.237231,0.88541 0.131617,0.31024 0.183843,0.64051 0.21567,0.97342 0.01296,0.32728 0.107571,0.6427 0.156077,0.96562 0.04744,0.36614 0.05282,0.73581 0.05748,1.10443 -0.01101,0.3529 0.05518,0.69867 0.168862,1.03086 0.08783,0.31143 0.172704,0.62193 0.264938,0.93229 0.09527,0.33788 0.10989,0.68928 0.130318,1.03748 0.01625,0.26992 0.0016,0.53726 0.04719,0.80452 0.03335,0.2723 0.14405,0.51612 0.287666,0.74485 0.120287,0.2594 0.242339,0.51853 0.322053,0.79402 0.133551,0.27236 0.179631,0.57091 0.2613,0.85918 0.0149,0.0469 0.02981,0.0937 0.04472,0.14058 0,0 -2.944034,1.61708 -2.944034,1.61708 v 0 c -0.01572,-0.0486 -0.03144,-0.0972 -0.04716,-0.14579 -0.09128,-0.28811 -0.119885,-0.59489 -0.265957,-0.8663 -0.06358,-0.2473 -0.179821,-0.47249 -0.281691,-0.705 -0.16293,-0.26297 -0.283892,-0.5512 -0.336994,-0.85785 -0.06168,-0.28334 -0.09331,-0.55971 -0.07178,-0.8508 -0.0045,-0.3229 -0.01725,-0.64857 -0.09328,-0.96384 -0.08647,-0.30714 -0.180621,-0.60943 -0.254045,-0.91996 -0.124119,-0.36266 -0.215734,-0.74258 -0.214017,-1.12805 -0.0029,-0.35472 -0.0051,-0.71028 -0.04253,-1.06341 -0.04299,-0.33053 -0.144161,-0.65043 -0.16274,-0.98287 -0.02252,-0.30563 -0.05801,-0.6106 -0.181952,-0.89457 -0.108241,-0.29683 -0.177961,-0.61367 -0.250795,-0.92009 -0.0735,-0.33563 -0.203994,-0.65477 -0.254982,-0.99578 -0.08683,-0.32448 -0.143364,-0.65502 -0.254728,-0.97247 -0.109963,-0.33531 -0.175969,-0.68798 -0.266438,-1.02852 -0.07514,-0.35355 -0.137435,-0.70159 -0.1393,-1.06502 -0.04259,-0.37921 -0.136372,-0.75148 -0.155887,-1.13181 -0.01378,-0.32424 -0.03272,-0.65057 -0.121672,-0.9646 -0.08596,-0.30842 -0.114683,-0.62229 -0.19581,-0.93174 -0.09533,-0.30887 -0.138544,-0.62409 -0.217688,-0.93738 -0.07044,-0.3145 -0.05494,-0.64375 -0.159727,-0.95251 -0.0944,-0.30387 -0.137432,-0.61456 -0.2248,-0.92049 -0.07862,-0.29764 -0.07981,-0.61404 -0.213823,-0.89791 -0.112144,-0.30707 -0.183063,-0.63249 -0.276469,-0.94544 -0.102986,-0.34912 -0.272806,-0.67092 -0.405262,-1.00897 0,0 2.939762,-1.64164 2.939762,-1.64164 z"
       inkscape:connector-curvature="0" />
    <path
       style="fill:#000000;fill-opacity:1;fill-rule:evenodd;stroke:#000000;stroke-width:0;stroke-linecap:butt;stroke-linejoin:miter;stroke-miterlimit:4;stroke-dasharray:none;stroke-dashoffset:0;stroke-opacity:1;paint-order:normal"
       id="path1724"
       d="m 29.245122,203.57878 c 0.353029,0.13619 0.700396,0.29171 1.059758,0.41222 0.355581,0.0725 0.697401,0.18801 1.056434,0.2469 0.381214,0.0298 0.752496,0.0557 1.127164,0.13166 0.366498,0.0924 0.751318,0.0534 1.115147,0.14598 0.321217,0.11005 0.66458,0.0964 0.98906,0.18288 0.354819,0.11635 0.735441,0.0909 1.091255,0.19016 0.318363,0.0814 0.633696,0.12916 0.946002,0.23054 0.331036,0.0558 0.649936,0.15243 0.978141,0.22239 0.303302,0.15053 0.62543,0.21827 0.959368,0.25124 0.340749,-0.011 0.659009,0.10726 0.991886,0.1599 0.339257,0.11414 0.684289,0.18263 1.021916,0.30005 0.335521,0.0655 0.66149,0.16266 0.99594,0.23429 0.356145,0.13014 0.722648,0.20611 1.079709,0.33146 0.33602,0.0807 0.656881,0.20062 0.998241,0.26159 0.312253,0.0854 0.594429,0.24111 0.899115,0.34365 0.247398,0.17826 0.529561,0.23039 0.82555,0.26021 0.299276,0.11963 0.613775,0.1657 0.932667,0.19079 0.374671,-0.005 0.733637,0.10351 1.102833,0.15467 0.338564,0.0494 0.658998,0.16472 1.001091,0.20761 0.34921,0.0738 0.673563,0.21381 1.013209,0.31688 0.154834,0.0608 0.265774,0.18324 0.392313,0.28557 0,0 -2.847324,1.78819 -2.847324,1.78819 v 0 c -0.100854,-0.08 -0.193497,-0.15594 -0.321214,-0.18964 -0.320247,-0.11508 -0.643454,-0.22111 -0.981253,-0.27303 -0.333338,-0.0643 -0.655658,-0.17609 -0.994801,-0.20967 -0.364996,-0.0619 -0.727512,-0.1263 -1.098569,-0.13925 -0.320003,-0.0438 -0.627787,-0.12892 -0.941662,-0.20086 -0.309367,-0.0599 -0.593114,-0.16791 -0.870562,-0.31711 -0.28118,-0.1185 -0.562832,-0.23743 -0.861515,-0.30631 -0.345577,-0.084 -0.686226,-0.18933 -1.026051,-0.29353 -0.346207,-0.11883 -0.705528,-0.19709 -1.055275,-0.30482 -0.340611,-0.0845 -0.686811,-0.14746 -1.020082,-0.25842 -0.324816,-0.10766 -0.662634,-0.1756 -0.994019,-0.25926 -0.325599,-0.0668 -0.647845,-0.13324 -0.981144,-0.14984 -0.335674,-0.0587 -0.651724,-0.16871 -0.973597,-0.27717 -0.333024,-0.0813 -0.670714,-0.14021 -0.999588,-0.23723 -0.304033,-0.0876 -0.621306,-0.12137 -0.92568,-0.21012 -0.364093,-0.0522 -0.728686,-0.0987 -1.086347,-0.18801 -0.332702,-0.0438 -0.662835,-0.096 -0.988802,-0.17742 -0.370788,-0.0405 -0.743372,-0.068 -1.108751,-0.14816 -0.374991,-0.0604 -0.757679,-0.053 -1.130147,-0.13409 -0.36633,-0.0813 -0.730847,-0.17794 -1.088622,-0.29021 -0.342121,-0.13635 -0.683056,-0.28613 -1.04586,-0.35866 0,0 2.764066,-1.92602 2.764066,-1.92602 z"
       inkscape:connector-curvature="0" />
    <path
       style="fill:#000000;fill-opacity:1;fill-rule:evenodd;stroke:#000000;stroke-width:0;stroke-linecap:butt;stroke-linejoin:miter;stroke-miterlimit:4;stroke-dasharray:none;stroke-dashoffset:0;stroke-opacity:1;paint-order:normal"
       id="path1726"
       d="m 49.874888,208.8331 c 0.297844,0.27973 0.598038,0.55526 0.909791,0.81968 0.275588,0.19766 0.557083,0.39426 0.799336,0.63268 0.205742,0.18304 0.41294,0.36924 0.596386,0.57542 0.210722,0.1979 0.389361,0.42516 0.609296,0.61463 0.198361,0.2202 0.353745,0.47052 0.559832,0.68461 0.234278,0.18879 0.478449,0.36904 0.691139,0.5827 0.204375,0.18359 0.411443,0.36866 0.594818,0.57404 0.190169,0.18713 0.389602,0.36714 0.566806,0.56721 0,0 -2.875412,1.74538 -2.875412,1.74538 v 0 c -0.184864,-0.19236 -0.377142,-0.37755 -0.565941,-0.566 -0.187558,-0.19317 -0.383281,-0.37874 -0.582912,-0.55931 -0.225097,-0.2065 -0.467426,-0.39272 -0.695793,-0.59554 -0.199475,-0.20937 -0.349012,-0.45606 -0.547539,-0.6653 -0.215882,-0.20635 -0.417023,-0.42643 -0.629272,-0.63626 -0.186854,-0.19311 -0.381683,-0.37895 -0.581708,-0.5583 -0.246761,-0.22335 -0.513733,-0.42257 -0.777081,-0.62569 -0.317926,-0.27255 -0.611722,-0.57233 -0.941152,-0.83157 0,0 2.869406,-1.75838 2.869406,-1.75838 z"
       inkscape:connector-curvature="0" />
    <path
       style="fill:#000000;fill-opacity:1;fill-rule:evenodd;stroke:#000000;stroke-width:0;stroke-linecap:butt;stroke-linejoin:miter;stroke-miterlimit:4;stroke-dasharray:none;stroke-dashoffset:0;stroke-opacity:1;paint-order:normal"
       id="path1736"
       d="m 49.288549,243.82256 c 0.318132,-0.33169 0.620535,-0.67948 0.924171,-1.02487 0.307935,-0.36635 0.654778,-0.69526 0.992767,-1.0328 0.265949,-0.32049 0.545679,-0.62096 0.880544,-0.87006 0.349544,-0.24151 0.633545,-0.55785 0.948452,-0.8396 0.281919,-0.23542 0.556665,-0.47986 0.814774,-0.74125 0.28702,-0.26867 0.552952,-0.55849 0.838416,-0.82871 0.238213,-0.2265 0.477732,-0.45039 0.703657,-0.68923 0.210286,-0.21077 0.431406,-0.41075 0.637342,-0.62572 0.192188,-0.18852 0.389583,-0.37258 0.573325,-0.56952 0.189259,-0.18801 0.384382,-0.37085 0.566267,-0.5662 0.262168,-0.23859 0.545602,-0.45058 0.810276,-0.68621 0.272523,-0.24338 0.553714,-0.47646 0.84556,-0.6965 0.289912,-0.23799 0.5998,-0.45031 0.893816,-0.68301 0.2486,-0.21507 0.518602,-0.40225 0.778661,-0.60254 0.244157,-0.17477 0.460981,-0.38239 0.695348,-0.56979 0.258477,-0.17718 0.496518,-0.38055 0.746279,-0.56952 0.263893,-0.17318 0.504473,-0.37731 0.756288,-0.56708 0.243845,-0.17985 0.497784,-0.34207 0.759049,-0.49535 0.252045,-0.18633 0.509776,-0.36518 0.769991,-0.53979 0.267105,-0.16081 0.542875,-0.31087 0.80101,-0.48615 0.289671,-0.17246 0.593378,-0.31874 0.887365,-0.4842 0.327136,-0.16387 0.62348,-0.35864 0.914059,-0.58031 0.379005,-0.26458 0.801989,-0.453 1.217744,-0.65029 0.412973,-0.20261 0.830345,-0.39414 1.252506,-0.57668 0.425577,-0.17213 0.773536,-0.47726 1.139108,-0.74586 0.261472,-0.1541 0.481698,-0.36811 0.745051,-0.51763 0.258051,-0.1667 0.475781,-0.38614 0.7376,-0.54665 0.225605,-0.17432 0.492633,-0.27756 0.721815,-0.44593 0.256326,-0.15159 0.499973,-0.31942 0.727252,-0.51304 0.21282,-0.19232 0.438105,-0.36503 0.679315,-0.52047 0.222393,-0.16014 0.414631,-0.35443 0.620644,-0.53379 0.220964,-0.14729 0.440653,-0.29861 0.635963,-0.47917 0.224404,-0.16438 0.45108,-0.3257 0.676852,-0.48909 0.286104,-0.20291 0.590399,-0.37931 0.888293,-0.56447 0.276516,-0.15793 0.530056,-0.34697 0.782823,-0.53906 0.232733,-0.21694 0.491305,-0.405 0.750999,-0.58805 0.293084,-0.21331 0.587086,-0.42527 0.873344,-0.64765 0.252751,-0.23365 0.526029,-0.44385 0.800037,-0.65164 0.245798,-0.21602 0.513572,-0.40632 0.782259,-0.59255 0.274137,-0.17005 0.527775,-0.36714 0.785402,-0.56015 0.253347,-0.17179 0.492636,-0.36083 0.73347,-0.54918 0.23113,-0.21007 0.488299,-0.38229 0.723329,-0.58944 0.241014,-0.20445 0.482113,-0.41033 0.705355,-0.63425 0.208145,-0.18108 0.378264,-0.40173 0.609254,-0.55501 0.22053,-0.14663 0.417467,-0.32156 0.622098,-0.48852 0.205571,-0.19345 0.406374,-0.39001 0.596988,-0.5985 0.207483,-0.21178 0.426987,-0.41156 0.63183,-0.6258 0.192466,-0.18919 0.390395,-0.37362 0.574638,-0.57101 0.190765,-0.18925 0.387088,-0.37361 0.570238,-0.57045 0.254402,-0.27342 0.488468,-0.56432 0.724286,-0.85364 0.187185,-0.22843 0.397481,-0.4355 0.595942,-0.6535 0.234149,-0.21457 0.405911,-0.48144 0.625229,-0.71019 0.279662,-0.2318 0.514927,-0.50721 0.752089,-0.78033 0.195413,-0.22831 0.389522,-0.45943 0.60452,-0.66969 0.198271,-0.21719 0.442529,-0.38891 0.676643,-0.56657 0.224808,-0.17828 0.426958,-0.38152 0.641032,-0.57171 0.199941,-0.19341 0.388104,-0.39923 0.595106,-0.58517 0.2607,-0.2044 0.520399,-0.40999 0.767176,-0.63166 0.215947,-0.18858 0.430067,-0.38102 0.62825,-0.5884 0.242745,-0.22136 0.511535,-0.41137 0.780296,-0.59952 0.267314,-0.15161 0.487807,-0.36959 0.751597,-0.52517 0.237513,-0.14227 0.443047,-0.32458 0.656553,-0.4987 0.224477,-0.14072 0.444095,-0.29168 0.63914,-0.47157 0.255694,-0.2314 0.56256,-0.39029 0.847127,-0.58076 0.261358,-0.16467 0.489887,-0.3736 0.730065,-0.56673 0.263194,-0.19875 0.513638,-0.41257 0.767382,-0.62283 0.222268,-0.21935 0.477083,-0.40268 0.729429,-0.58543 0.268055,-0.20462 0.518265,-0.4244 0.758565,-0.66076 0.19468,-0.2368 0.45945,-0.39495 0.68991,-0.59176 0.20719,-0.16484 0.40567,-0.34334 0.58872,-0.53496 0.14389,-0.12899 0.0701,-0.0729 0.21941,-0.17096 0,0 3.35629,-0.21919 3.35629,-0.21919 v 0 c -0.13789,0.12012 -0.0633,0.0739 -0.22106,0.1428 -0.21521,0.1652 -0.38438,0.38502 -0.58827,0.56375 -0.24402,0.16338 -0.45887,0.36886 -0.70365,0.53212 -0.21793,0.26286 -0.46632,0.50664 -0.74961,0.69981 -0.21905,0.22001 -0.49262,0.36662 -0.73039,0.56574 -0.22359,0.24952 -0.50438,0.44977 -0.77326,0.64718 -0.239,0.21102 -0.48657,0.40485 -0.72561,0.61367 -0.28626,0.16722 -0.56856,0.34685 -0.83948,0.53702 -0.221906,0.16055 -0.402101,0.37161 -0.637204,0.51672 -0.259014,0.10997 -0.410824,0.35155 -0.659292,0.47978 -0.245721,0.19887 0.01492,0.005 -0.246776,0.15166 -0.187053,0.10483 -0.327391,0.28372 -0.512144,0.39387 -0.27941,0.14795 -0.520446,0.35228 -0.774091,0.53642 -0.230794,0.17868 -0.414407,0.41442 -0.634619,0.60654 -0.26465,0.1952 -0.481293,0.45214 -0.764027,0.62087 -0.209748,0.1767 -0.392861,0.36985 -0.594093,0.55328 -0.18561,0.22622 -0.420965,0.41416 -0.643932,0.60153 -0.202343,0.20386 -0.436356,0.37201 -0.674582,0.52698 -0.18656,0.23412 -0.421507,0.42673 -0.617587,0.6539 -0.225804,0.29761 -0.480928,0.57293 -0.745543,0.83737 -0.26274,0.18679 -0.419635,0.44848 -0.615927,0.69822 -0.228867,0.17831 -0.411588,0.41679 -0.608054,0.62887 -0.267343,0.25661 -0.465619,0.57338 -0.718786,0.8442 -0.176855,0.21754 -0.374827,0.40254 -0.562663,0.60759 -0.214074,0.16487 -0.384035,0.38462 -0.576313,0.57304 -0.23328,0.1808 -0.423635,0.41609 -0.636759,0.61938 -0.218768,0.17492 -0.362747,0.42402 -0.591458,0.58762 -0.172976,0.20797 -0.396343,0.38442 -0.619196,0.53382 -0.239258,0.20805 0.02641,-0.004 -0.221525,0.14317 -0.155938,0.0928 -0.259752,0.26803 -0.392123,0.38801 -0.254238,0.19664 -0.464691,0.44769 -0.714148,0.65174 -0.247909,0.17848 -0.436028,0.42761 -0.714983,0.56066 -0.208061,0.23231 -0.473959,0.41903 -0.73624,0.58439 -0.255474,0.2012 -0.502489,0.41448 -0.786964,0.57227 -0.259516,0.19019 -0.522933,0.36624 -0.781169,0.55797 -0.244456,0.24486 -0.549378,0.4137 -0.806566,0.64583 -0.25586,0.26933 -0.581724,0.45216 -0.867627,0.68599 -0.249629,0.18455 -0.502187,0.35598 -0.747181,0.54635 -0.220932,0.24266 -0.50537,0.43395 -0.788789,0.59586 -0.285102,0.19713 -0.577972,0.37632 -0.881695,0.54278 -0.217186,0.16919 -0.426421,0.35421 -0.673034,0.47387 -0.22139,0.15989 -0.401478,0.36994 -0.634224,0.51668 -0.254019,0.11057 -0.393679,0.34995 -0.623091,0.49732 -0.208786,0.20736 -0.493102,0.3014 -0.683832,0.52847 -0.243393,0.17276 -0.443931,0.41701 -0.72081,0.53383 -0.240559,0.15227 -0.451268,0.34298 -0.725286,0.44003 -0.237583,0.19199 -0.523409,0.32171 -0.734711,0.55183 -0.235225,0.18962 0.01061,0.009 -0.240657,0.1445 -0.188793,0.10169 -0.330367,0.28151 -0.519245,0.38579 -0.412422,0.22356 -0.741733,0.57148 -1.149358,0.80616 -0.427487,0.16468 -0.844243,0.35144 -1.249688,0.56451 -0.414382,0.17771 -0.817829,0.3656 -1.210013,0.58764 -0.311603,0.19811 -0.550963,0.48452 -0.908376,0.59962 -0.279839,0.18721 -0.571235,0.35266 -0.883573,0.47884 -0.271381,0.16136 -0.532731,0.33974 -0.799065,0.51001 -0.284324,0.11716 -0.50617,0.33045 -0.768636,0.48781 -0.230354,0.21517 -0.532964,0.3061 -0.764508,0.51968 -0.278387,0.15387 -0.504939,0.37587 -0.756227,0.56678 -0.275355,0.15206 -0.499938,0.37099 -0.745321,0.56344 -0.263996,0.14811 -0.472038,0.36536 -0.695378,0.56489 -0.275899,0.17508 -0.544115,0.37368 -0.784466,0.59579 -0.30807,0.20876 -0.586774,0.45677 -0.897061,0.66416 -0.271796,0.2435 -0.593262,0.4315 -0.845397,0.69862 -0.278358,0.20589 -0.51744,0.45921 -0.796952,0.66492 -0.210968,0.16248 -0.378994,0.37892 -0.566258,0.56641 -0.213609,0.16449 -0.383096,0.38384 -0.574874,0.5719 -0.235394,0.18213 -0.42677,0.41973 -0.644173,0.6225 -0.256365,0.20496 -0.440272,0.48902 -0.713107,0.6777 -0.269396,0.28228 -0.555572,0.5542 -0.840103,0.82076 -0.257968,0.27912 -0.527867,0.53541 -0.812046,0.78713 -0.352896,0.24536 -0.610534,0.58887 -0.952253,0.84834 -0.110837,0.0845 -0.236303,0.14866 -0.346742,0.23368 -0.207383,0.15966 -0.373605,0.38792 -0.538742,0.58688 -0.330115,0.34259 -0.69578,0.64658 -0.999633,1.01517 -0.302914,0.34337 -0.6228,0.67292 -0.891209,1.04347 0,0 -3.354946,0.26404 -3.354946,0.26404 z"
       inkscape:connector-curvature="0" />
    <path
       style="fill:#000000;fill-opacity:1;fill-rule:evenodd;stroke:#000000;stroke-width:0;stroke-linecap:butt;stroke-linejoin:miter;stroke-miterlimit:4;stroke-dasharray:none;stroke-dashoffset:0;stroke-opacity:1;paint-order:normal"
       id="path1748"
       d="m 53.14611,243.24505 c -0.390055,0.097 -0.778786,0.20664 -1.156299,0.34522 -0.33374,0.10533 -0.63817,0.27979 -0.964587,0.4021 -0.312309,0.10852 -0.604681,0.26195 -0.927992,0.3363 -0.285141,0.10725 -0.585221,0.14999 -0.877978,0.22921 -0.275755,0.0607 -0.54319,0.15775 -0.806726,0.25895 -0.315064,0.0999 -0.634046,0.18217 -0.948935,0.28218 -0.280105,0.0776 -0.553672,0.17785 -0.824586,0.28326 -0.314797,0.101 -0.633955,0.18294 -0.948949,0.28288 -0.280028,0.0774 -0.553504,0.17758 -0.824309,0.28293 -0.267505,0.0874 -0.530482,0.18841 -0.792251,0.29265 -0.2672,0.0885 -0.530262,0.18924 -0.792171,0.29335 -0.256402,0.07 -0.498716,0.18578 -0.716109,0.33796 -0.242197,0.13451 -0.483386,0.26925 -0.723259,0.40874 -0.267725,0.0938 -0.529597,0.18914 -0.78608,0.31189 -0.257501,0.13173 -0.533613,0.19921 -0.806755,0.28635 -0.330694,0.0969 -0.662638,0.18707 -1.005071,0.23054 -9.183679,0.56822 -0.463871,0.0226 -0.347964,0.0157 0.05317,-0.003 -0.10577,0.0126 -0.15851,0.02 -0.06922,0.01 -0.255294,0.0417 -0.324345,0.0463 -1.158196,0.0775 -2.316856,0.14799 -3.475285,0.22197 1.043707,-0.0666 2.087167,-0.13713 3.131121,-0.19968 0.06064,-0.004 -0.120555,0.015 -0.180799,0.0229 -0.09981,0.013 -0.270754,0.0383 -0.371137,0.0448 -1.162778,0.0751 -2.325539,0.1508 -3.488841,0.21727 -0.06303,0.004 -0.126164,-0.005 -0.189255,-0.007 -0.252224,0.0115 -0.505573,-0.0702 -0.756538,-0.0643 -0.05624,8.6e-4 -0.222881,0.031 -0.16666,0.0277 1.049475,-0.0609 2.098225,-0.13372 3.147336,-0.20059 -1.934469,0.17778 -7.392547,0.44187 -0.640744,0.0428 0.10142,-0.006 -0.200607,0.0326 -0.300454,0.0513 -0.260583,0.004 -0.389796,0.13543 -0.546355,0.31879 -0.131058,0.15384 -0.313934,0.24815 -0.472226,0.37205 -0.135606,0.20211 -0.305573,0.37646 -0.482199,0.54407 -0.201649,0.16254 -0.401623,0.32727 -0.611079,0.47968 0,0 -3.358289,-0.0975 -3.358289,-0.0975 v 0 c 0.192119,-0.17968 0.422588,-0.30771 0.614589,-0.48788 0.18649,-0.11714 0.34606,-0.2903 0.464478,-0.46722 0.103981,-0.17957 0.276587,-0.33857 0.47154,-0.40037 0.192581,-0.18432 0.301202,-0.44846 0.573041,-0.53894 1.997417,-0.25937 7.536798,-0.54222 0.785212,-0.10162 -0.05344,0.003 0.106713,-0.01 0.16007,-0.0147 1.674941,-0.11098 2.881047,-0.2841 4.389223,-0.17838 1.234844,-0.034 0.113155,-0.005 -2.927581,0.20009 -0.06161,0.004 0.123486,-0.003 0.185096,-0.007 0.06109,-0.004 0.121927,-0.0111 0.182886,-0.0165 0.05986,-0.009 0.119221,-0.0221 0.17956,-0.0266 1.160097,-0.0857 2.320827,-0.16265 3.48124,-0.24397 -10.408605,0.69129 8.189555,-0.57609 -2.302978,0.1216 0.341173,-0.005 0.662715,-0.0614 0.9882,-0.1569 0.09398,-0.027 0.181438,-0.0745 0.276104,-0.099 0.183138,-0.0473 0.376247,-0.0252 0.528566,-0.16862 0.275875,-0.0689 0.495082,-0.27087 0.784269,-0.29326 0.266248,-0.073 0.454919,-0.27955 0.719408,-0.35562 0.244986,-0.1385 0.453876,-0.33244 0.723976,-0.42951 0.153198,-0.0306 0.254074,-0.0937 0.396189,-0.14658 0.131934,-0.0491 0.283138,-0.0435 0.395925,-0.1466 0.15312,-0.0306 0.253726,-0.0937 0.39573,-0.14671 0.132183,-0.0494 0.283817,-0.0441 0.396943,-0.14709 0.154458,-0.0311 0.259869,-0.0955 0.40396,-0.14788 0.140173,-0.051 0.301593,-0.0485 0.425663,-0.14807 0.167545,-0.0317 0.305548,-0.0977 0.466696,-0.14371 0.157125,-0.0449 0.331565,-0.0365 0.476944,-0.12613 0.154495,-0.0312 0.259925,-0.0955 0.404045,-0.14793 0.140245,-0.051 0.301746,-0.0487 0.425873,-0.14822 0.167645,-0.0318 0.305727,-0.0979 0.46697,-0.14404 0.156965,-0.0449 0.331276,-0.0367 0.476465,-0.12626 0.153033,-0.0307 0.257063,-0.0947 0.399741,-0.14605 0.134808,-0.0485 0.291183,-0.042 0.410458,-0.13865 0.153821,-0.0232 0.283823,-0.0828 0.432238,-0.11586 0.144904,-0.0323 0.306156,-0.003 0.444018,-0.0772 0.154778,-0.065 0.300935,-0.0696 0.458916,-0.12142 0.31289,-0.10265 -0.013,-0.014 0.306892,-0.14581 0.0534,-0.022 0.110979,-0.032 0.166473,-0.048 0.325291,-0.13609 0.651185,-0.25773 0.968472,-0.4135 0.377761,-0.13096 0.753261,-0.27151 1.140262,-0.37039 0,0 3.358513,0.23994 3.358513,0.23994 z"
       inkscape:connector-curvature="0" />
    <path
       style="fill:#000000;fill-opacity:1;fill-rule:evenodd;stroke:#000000;stroke-width:0;stroke-linecap:butt;stroke-linejoin:miter;stroke-miterlimit:4;stroke-dasharray:none;stroke-dashoffset:0;stroke-opacity:1;paint-order:normal"
       id="path1750"
       d="m 35.122122,249.53617 c 0.290276,0.34527 0.652942,0.60812 1.034866,0.84257 0.339879,0.20918 0.676822,0.43737 1.040742,0.60356 0.305932,0.17577 0.622108,0.31394 0.907007,0.52556 0.277221,0.1755 0.587065,0.31018 0.844527,0.51377 0.238613,0.16017 0.508574,0.28219 0.728877,0.46689 0.21877,0.16873 0.423477,0.35135 0.650383,0.51163 0.257852,0.11282 0.416885,0.35408 0.660908,0.48804 0.198149,0.20413 0.421914,0.3618 0.648791,0.53041 0.2867,0.2168 0.53976,0.47485 0.834123,0.68237 0.137418,0.19038 0.342643,0.2591 0.535412,0.36595 0.0907,0.0503 0.171917,0.11636 0.262091,0.16761 0.234426,0.1708 0.397771,0.40923 0.603022,0.60832 0.219018,0.15489 0.427597,0.34536 0.589922,0.56099 0.200788,0.21438 0.3836,0.44758 0.610634,0.63839 0.238966,0.2211 0.433855,0.48428 0.666031,0.71061 0.215974,0.16672 0.42919,0.33145 0.65805,0.48222 0.194184,0.2059 0.435223,0.35 0.649632,0.53584 0.298465,0.21874 0.614519,0.41158 0.915792,0.62657 0.310274,0.21289 0.63425,0.42779 0.908986,0.68681 0.233835,0.19943 0.517964,0.33326 0.750409,0.53085 0.263629,0.17717 0.508824,0.37593 0.746588,0.58687 0.27585,0.16684 0.45361,0.44612 0.727608,0.61267 0.228456,0.17143 0.397995,0.40053 0.604626,0.59365 0.0285,0.0405 0.05701,0.0811 0.08551,0.12164 0,0 -3.337109,0.42214 -3.337109,0.42214 v 0 c -0.02692,-0.0291 -0.05384,-0.0582 -0.08074,-0.0874 -0.18031,-0.19953 -0.379123,-0.38089 -0.593256,-0.54382 -0.239465,-0.21303 -0.463112,-0.44417 -0.724731,-0.63185 -0.245147,-0.19553 -0.49176,-0.38795 -0.750898,-0.56504 -0.262865,-0.16408 -0.506207,-0.35969 -0.745059,-0.55641 -0.291811,-0.22556 -0.582523,-0.45372 -0.894335,-0.65142 -0.318018,-0.20759 -0.634659,-0.41867 -0.935042,-0.65129 -0.220892,-0.16679 -0.436549,-0.33923 -0.650406,-0.5143 -0.229206,-0.17458 -0.470076,-0.33501 -0.666134,-0.54951 -0.205746,-0.23974 -0.42422,-0.46817 -0.652474,-0.68663 -0.218586,-0.21725 -0.427683,-0.4419 -0.629065,-0.6751 -0.191503,-0.18749 -0.391762,-0.36409 -0.587901,-0.54634 -0.171324,-0.19691 -0.358062,-0.38427 -0.584664,-0.51747 -0.277866,-0.175 -0.559605,-0.33767 -0.794346,-0.5726 -0.276787,-0.22802 -0.545297,-0.46664 -0.840379,-0.67143 -0.229664,-0.15996 -0.419332,-0.36651 -0.652157,-0.52282 -0.215504,-0.17674 -0.427098,-0.35562 -0.663978,-0.50424 -0.211115,-0.17283 -0.426071,-0.3416 -0.648135,-0.5 -0.248745,-0.14194 -0.48251,-0.30904 -0.724938,-0.46132 -0.284812,-0.16106 -0.558957,-0.34093 -0.83821,-0.51124 -0.294895,-0.17403 -0.601077,-0.32535 -0.900901,-0.49075 -0.347779,-0.20551 -0.696813,-0.4098 -1.02915,-0.63988 -0.391326,-0.27732 -0.763567,-0.57721 -1.079067,-0.94133 0,0 3.338537,-0.42374 3.338538,-0.42374 z"
       inkscape:connector-curvature="0" />
    <path
       style="fill:#000000;fill-opacity:1;fill-rule:evenodd;stroke:#000000;stroke-width:0;stroke-linecap:butt;stroke-linejoin:miter;stroke-miterlimit:4;stroke-dasharray:none;stroke-dashoffset:0;stroke-opacity:1;paint-order:normal"
       id="path1752"
       d="m 52.649442,243.59546 c 0.01215,0.44195 0.0093,0.88367 -0.01041,1.32531 0.03725,0.35147 0.06923,0.70142 0.06754,1.05515 -0.0088,0.37286 -0.04823,0.74406 -0.08704,1.11473 -0.04223,0.38345 -0.08183,0.76722 -0.1301,1.14997 -0.04992,0.42346 -0.09361,0.84761 -0.138835,1.27159 -0.04078,0.38324 -0.08254,0.76636 -0.124313,1.14949 -0.06889,0.36983 -0.02697,0.74177 -0.01209,1.11392 0.01041,0.38507 0.07172,0.76532 0.0847,1.15086 -0.02384,0.35214 -0.0069,0.69558 0.02904,1.04541 0.03364,0.35694 0.01029,0.71524 -0.01774,1.07158 -0.03264,0.35038 -0.0881,0.69391 -0.05547,1.04537 0.03129,0.32172 0.01842,0.64082 0.07016,0.95999 0.01894,0.31421 0.07257,0.61951 0.121054,0.92977 0.04696,0.35546 0.02303,0.7142 -0.0045,1.07005 -0.03289,0.37643 -0.07582,0.75189 -0.117564,1.12742 -0.04209,0.37602 -0.0837,0.75211 -0.125194,1.1282 -0.04143,0.37572 -0.0827,0.75147 -0.12396,1.12721 -0.0275,0.25048 -0.05501,0.50095 -0.08251,0.75143 0,0 -3.344088,0.15967 -3.344088,0.15967 v 0 c 0.0275,-0.25048 0.055,-0.50096 0.08251,-0.75144 0.04127,-0.3758 0.08254,-0.75161 0.123981,-1.1274 0.04153,-0.37618 0.08315,-0.75235 0.125223,-1.12847 0.04135,-0.37174 0.08375,-0.74342 0.116415,-1.11604 0.02532,-0.32928 0.04908,-0.66166 0.0011,-0.99019 -0.05176,-0.31018 -0.09344,-0.61854 -0.121051,-0.93179 -0.04873,-0.32703 -0.0372,-0.65461 -0.06988,-0.98334 -0.02884,-0.37 0.02145,-0.73208 0.05856,-1.1003 0.02632,-0.33616 0.04878,-0.67424 0.01501,-1.01085 -0.03642,-0.35763 -0.04467,-0.71022 -0.02202,-1.06946 -0.01146,-0.38482 -0.0754,-0.76403 -0.08453,-1.1484 -0.01492,-0.38844 -0.06179,-0.77746 0.0089,-1.16355 0.04227,-0.38326 0.0847,-0.76652 0.128156,-1.14967 0.04816,-0.42389 0.09751,-0.84768 0.141592,-1.27202 0.03663,-0.38301 0.0832,-0.76495 0.123401,-1.1476 0.03757,-0.35959 0.07621,-0.71964 0.08531,-1.08134 0.0019,-0.35864 -0.03863,-0.7132 -0.05564,-1.07098 0.0239,-0.42514 0.04117,-0.85385 -0.01661,-1.27718 0,0 3.361255,-0.22706 3.361255,-0.22706 z"
       inkscape:connector-curvature="0" />
  </g>
</svg>
